<?xml version="1.0" encoding="utf-8"?>
<!-- Generator: Adobe Illustrator 25.3.1, SVG Export Plug-In . SVG Version: 6.00 Build 0)  -->
<svg version="1.1" id="Layer_1" xmlns="http://www.w3.org/2000/svg" xmlns:xlink="http://www.w3.org/1999/xlink" x="0px" y="0px"
	 viewBox="0 0 841.89 595.28" style="enable-background:new 0 0 841.89 595.28;" xml:space="preserve">
<style type="text/css">
	.st0{fill:#FFFFFF;}
</style>
<g>
	<path class="st0" d="M211,88.28c139.82,0,279.63,0,419.45,0c0,139.82,0,279.63,0,419.45c-139.82,0-279.63,0-419.45,0
		C211,367.91,211,228.09,211,88.28z M588.78,454.39c0.27-0.01,0.41-0.03,0.54-0.02c5.85,0.45,11.63,1.36,17.35,2.66
		c3.44,0.78,6.87,1.6,10.33,2.24c2.08,0.39,4.12,0.03,5.86-1.31c2.4-1.85,3.18-4.46,2.89-7.31c-0.28-2.68-0.7-5.38-1.44-7.97
		c-2.8-9.88-7.7-18.71-13.89-26.86c-8.77-11.53-19.51-20.72-32.42-27.31c-1.85-0.94-3.82-1.65-5.69-2.45
		c0.55-1.87,0.97-3.82,1.68-5.65c1.68-4.32,3.02-8.73,3.76-13.32c0.06-0.36,0.3-0.78,0.59-0.99c4.18-3.01,7.43-6.87,10.19-11.17
		c6.89-10.73,10.53-22.46,10.77-35.21c0.11-6.03-0.43-12-2.92-17.6c-2.37-5.32-6.22-8.95-12.09-10.12c-0.12-0.02-0.23-0.1-0.49-0.21
		c1.33-1.23,2.65-2.32,3.82-3.55c1.43-1.51,3-2.98,4.05-4.74c1.69-2.84,3.07-5.88,4.46-8.89c1.71-3.72,1.56-7.59,0.6-11.46
		c-0.69-2.77-3.15-4.1-5.86-3.27c-0.24,0.07-0.49,0.11-0.88,0.2c0.66-3.22,1.16-6.33,1.95-9.36c0.56-2.17-0.29-5.89-3.64-6.24
		c-1.05-0.11-2.12-0.24-3.17-0.2c-1.28,0.05-2.56,0.29-3.91,0.45c0.01-0.21,0.02-0.4,0.04-0.6c0.4-3.13,0.79-6.25,1.2-9.38
		c0.31-2.41,0.82-4.81,0.91-7.23c0.15-3.95-2.82-6.28-6.7-5.49c-0.46,0.09-0.91,0.21-1.46,0.33c0.06-0.32,0.09-0.52,0.13-0.71
		c1.83-8.26,1.97-16.58,0.67-24.92c-0.55-3.51-1.24-7-1.75-10.51c-0.47-3.28-0.9-3.85-4.13-4.64c-0.07-0.02-0.13-0.04-0.2-0.06
		c-1.85-0.53-3.42-0.02-4.59,1.46c-0.74,0.93-1.35,1.98-1.89,3.05c-1.41,2.76-3.1,5.33-5.19,7.62c-0.19,0.21-0.42,0.38-0.76,0.69
		c0-0.57,0-0.93,0-1.3c-0.02-6.94-0.62-13.83-2.33-20.57c-0.3-1.17-0.81-2.35-1.49-3.34c-1.17-1.7-3.33-1.82-4.83-0.38
		c-0.47,0.44-0.83,1-1.21,1.53c-1.24,1.77-2.45,3.55-3.69,5.32c-0.38,0.55-0.81,1.06-1.24,1.61c0-2.7-0.17-5.3,0.03-7.87
		c0.62-8.13,1.65-16.22,3.13-24.24c0.41-2.24,0.74-4.55,0.67-6.82c-0.08-2.87-2.57-4.68-5.42-4.25c-0.84,0.12-1.67,0.39-2.46,0.7
		c-2.82,1.12-5.1,3.05-7.34,5.03c-0.26,0.23-0.52,0.46-0.92,0.8c0.31-5.34,1.16-10.36,2.28-15.35c0.55-2.44,1.15-4.87,1.61-7.32
		c0.3-1.63-0.26-3.07-1.66-4.05c-1.41-0.98-2.9-0.92-4.37-0.12c-0.69,0.38-1.35,0.81-2.02,1.23c-1.11,0.7-2.21,1.4-3.44,2.18
		c0.5-4.6,1.02-9.02,1.46-13.44c0.29-2.96,0.56-5.94,0.67-8.91c0.07-1.93-0.81-3.49-2.71-4.2c-1.88-0.7-3.53-0.14-4.86,1.28
		c-0.67,0.72-1.23,1.56-1.76,2.4c-4.02,6.38-8.93,11.97-14.87,16.61c-3.43,2.68-6.97,5.21-10.41,7.87
		c-3.46,2.68-6.97,5.33-10.26,8.22c-3.37,2.97-6.13,6.49-7.63,10.81c-2.19,6.3-3.36,12.78-3.19,19.47c0.01,0.57,0,1.15,0,1.81
		c-0.33-0.13-0.61-0.25-0.89-0.35c-1.93-0.71-3.82-1.52-5.79-2.11c-11.72-3.54-23.76-5.05-35.95-5.53
		c-14.7-0.58-29.32,0.34-43.83,2.68c-7.71,1.24-15.39,2.63-22.8,5.2c-0.14,0.05-0.3,0.04-0.54,0.06c0.28-4.23-0.19-8.33-0.78-12.45
		c-1.33-9.22-5.58-16.67-12.98-22.31c-3.81-2.91-7.61-5.85-11.52-8.63c-8.69-6.18-16.34-13.34-21.83-22.6
		c-0.34-0.58-0.83-1.1-1.35-1.54c-1.32-1.13-2.84-1.51-4.5-0.87c-1.68,0.65-2.49,1.99-2.65,3.72c-0.08,0.88-0.07,1.79,0.02,2.67
		c0.48,4.87,0.99,9.75,1.5,14.62c0.16,1.57,0.34,3.15,0.54,4.92c-0.5-0.3-0.78-0.48-1.07-0.65c-1.23-0.75-2.43-1.55-3.69-2.23
		c-1.41-0.76-2.85-0.71-4.19,0.22c-1.33,0.92-1.81,2.28-1.69,3.85c0.04,0.51,0.16,1.01,0.26,1.52c1.01,4.96,2.08,9.92,3.01,14.9
		c0.38,2.05,0.48,4.16,0.73,6.47c-1.32-1.11-2.4-2.06-3.52-2.95c-1.97-1.57-4.08-2.91-6.57-3.48c-3.51-0.8-6.19,1.26-6.21,4.86
		c-0.01,1.33,0.14,2.67,0.39,3.98c2.75,14.28,4.18,28.67,3.75,43.22c-0.01,0.36-0.03,0.72-0.06,1.34c-0.32-0.49-0.49-0.77-0.68-1.04
		c-2.81-4.01-5.56-8.06-8.46-12c-0.72-0.98-1.8-1.82-2.89-2.39c-2-1.06-4.03-0.27-4.93,1.81c-0.37,0.86-0.63,1.85-0.62,2.78
		c0.04,3.73,0.18,7.46,0.32,11.19c0.05,1.33,0.18,2.66,0.3,4.27c-0.36-0.45-0.54-0.61-0.66-0.82c-1.32-2.2-2.66-4.39-3.94-6.61
		c-1.73-3.01-3.04-3.66-6.34-3.07c-2.53,0.46-3.37,1.33-3.7,3.88c-0.19,1.46-0.2,2.95-0.54,4.37c-2.01,8.41-2.75,16.89-1.71,25.5
		c0.28,2.3,0.72,4.57,1.09,6.94c-0.55-0.12-1.07-0.26-1.6-0.35c-3.75-0.65-6.5,1.64-6.52,5.45c0,0.65,0.04,1.3,0.13,1.95
		c0.42,3.12,0.86,6.24,1.29,9.36c0.27,1.99,0.53,3.98,0.8,6.04c-0.32-0.04-0.51-0.06-0.71-0.09c-2.93-0.58-5.79-0.85-8.6,0.69
		c-1.66,0.91-2.48,1.82-2.17,3.71c0.21,1.26,0.58,2.59,1.24,3.66c2.46,3.99,5.06,7.89,7.64,11.81c0.49,0.74,1.12,1.38,1.73,2.03
		c6.02,6.44,12.4,12.49,19.56,17.68c0.25,0.18,0.44,0.76,0.35,1.07c-0.6,2.22-1.27,4.41-1.92,6.61c-0.05,0.15-0.15,0.29-0.11,0.22
		c-1.71-0.13-3.29-0.45-4.83-0.34c-6.66,0.48-11.01,4.26-13.75,10.1c-1.84,3.93-2.58,8.16-2.85,12.45
		c-0.74,11.81,1.44,23.06,6.73,33.66c2.97,5.95,6.48,11.53,11.5,16.02c0.49,0.44,0.9,1.13,1.04,1.77c1.54,6.75,3.3,13.44,5.69,19.95
		c0.09,0.24,0.13,0.5,0.18,0.67c-2.22,1.06-4.4,1.97-6.47,3.1c-13.08,7.18-23.87,16.93-32.46,29.12
		c-5.53,7.85-9.86,16.29-12.25,25.63c-0.7,2.73-1.25,5.49-0.95,8.33c0.44,4.14,3.39,6.82,7.53,6.74c1.46-0.03,2.96-0.18,4.37-0.54
		c9.34-2.39,18.76-4.26,28.42-4.69c1.27-0.06,2.55-0.01,3.88-0.01c-0.92,1.81-1.95,3.52-2.69,5.34c-1.21,2.96-2.56,5.93-3.28,9.03
		c-1.17,4.96,2.14,7.19,5.78,6.51c2.08-0.39,4.17-0.78,6.2-1.35c11.57-3.21,23.35-5.3,35.32-5.97c7.24-0.41,14.52-0.24,21.78-0.24
		c1.76,0,3.64,0.05,5.26,0.63c7.87,2.79,15.69,5.76,23.51,8.69c5.67,2.13,11.26,4.51,17.01,6.4c15,4.94,30.43,7.54,46.22,7.97
		c19.2,0.53,37.95-2.24,56.13-8.31c12.86-4.29,25.5-9.22,38.25-13.85c0.73-0.27,1.51-0.49,2.28-0.55
		c5.26-0.41,10.51-0.91,15.78-1.12c9.98-0.4,19.93,0.13,29.84,1.4c8.75,1.12,17.32,3.05,25.84,5.31c1.91,0.51,3.89,0.88,5.85,0.97
		c2.7,0.12,4.55-1.77,4.57-4.47c0.01-1.21-0.19-2.46-0.53-3.63c-1.14-4.01-2.95-7.73-4.93-11.38
		C589.18,455.19,589.01,454.83,588.78,454.39z"/>
	<path d="M588.78,454.39c0.22,0.44,0.4,0.8,0.58,1.14c1.98,3.65,3.79,7.38,4.93,11.38c0.33,1.17,0.53,2.42,0.53,3.63
		c-0.02,2.7-1.88,4.59-4.57,4.47c-1.96-0.09-3.95-0.46-5.85-0.97c-8.51-2.26-17.09-4.19-25.84-5.31c-9.91-1.27-19.86-1.8-29.84-1.4
		c-5.27,0.21-10.52,0.71-15.78,1.12c-0.77,0.06-1.55,0.28-2.28,0.55c-12.75,4.63-25.39,9.56-38.25,13.85
		c-18.18,6.07-36.93,8.85-56.13,8.31c-15.79-0.44-31.22-3.03-46.22-7.97c-5.75-1.9-11.34-4.28-17.01-6.4
		c-7.82-2.93-15.64-5.9-23.51-8.69c-1.63-0.58-3.5-0.63-5.26-0.63c-7.26,0-14.54-0.17-21.78,0.24c-11.97,0.67-23.75,2.76-35.32,5.97
		c-2.04,0.56-4.12,0.96-6.2,1.35c-3.63,0.68-6.94-1.55-5.78-6.51c0.73-3.1,2.07-6.06,3.28-9.03c0.75-1.82,1.77-3.53,2.69-5.34
		c-1.33,0-2.61-0.05-3.88,0.01c-9.66,0.43-19.08,2.3-28.42,4.69c-1.41,0.36-2.91,0.51-4.37,0.54c-4.14,0.08-7.1-2.59-7.53-6.74
		c-0.3-2.84,0.25-5.61,0.95-8.33c2.4-9.35,6.72-17.79,12.25-25.63c8.59-12.19,19.38-21.94,32.46-29.12c2.07-1.13,4.25-2.05,6.47-3.1
		c-0.04-0.17-0.09-0.42-0.18-0.67c-2.39-6.51-4.15-13.2-5.69-19.95c-0.15-0.64-0.55-1.33-1.04-1.77
		c-5.02-4.49-8.53-10.07-11.5-16.02c-5.29-10.6-7.47-21.85-6.73-33.66c0.27-4.3,1-8.52,2.85-12.45c2.74-5.84,7.09-9.61,13.75-10.1
		c1.54-0.11,3.11,0.21,4.83,0.34c-0.03,0.06,0.07-0.07,0.11-0.22c0.65-2.2,1.33-4.39,1.92-6.61c0.08-0.31-0.1-0.88-0.35-1.07
		c-7.16-5.19-13.54-11.24-19.56-17.68c-0.61-0.65-1.25-1.29-1.73-2.03c-2.58-3.91-5.18-7.82-7.64-11.81
		c-0.66-1.07-1.03-2.4-1.24-3.66c-0.31-1.89,0.51-2.8,2.17-3.71c2.81-1.54,5.67-1.28,8.6-0.69c0.19,0.04,0.39,0.05,0.71,0.09
		c-0.27-2.06-0.53-4.05-0.8-6.04c-0.43-3.12-0.87-6.24-1.29-9.36c-0.09-0.64-0.13-1.3-0.13-1.95c0.02-3.81,2.77-6.1,6.52-5.45
		c0.53,0.09,1.05,0.23,1.6,0.35c-0.38-2.37-0.82-4.65-1.09-6.94c-1.04-8.6-0.3-17.09,1.71-25.5c0.34-1.42,0.35-2.91,0.54-4.37
		c0.32-2.54,1.17-3.42,3.7-3.88c3.3-0.59,4.61,0.06,6.34,3.07c1.28,2.22,2.62,4.41,3.94,6.61c0.12,0.2,0.3,0.37,0.66,0.82
		c-0.12-1.61-0.25-2.94-0.3-4.27c-0.14-3.73-0.28-7.46-0.32-11.19c-0.01-0.93,0.25-1.92,0.62-2.78c0.89-2.08,2.93-2.87,4.93-1.81
		c1.09,0.58,2.17,1.41,2.89,2.39c2.9,3.94,5.65,7.99,8.46,12c0.19,0.27,0.36,0.55,0.68,1.04c0.03-0.62,0.05-0.98,0.06-1.34
		c0.43-14.55-1-28.94-3.75-43.22c-0.25-1.3-0.4-2.65-0.39-3.98c0.03-3.59,2.7-5.66,6.21-4.86c2.5,0.57,4.6,1.92,6.57,3.48
		c1.12,0.89,2.19,1.84,3.52,2.95c-0.25-2.32-0.35-4.42-0.73-6.47c-0.93-4.98-2-9.93-3.01-14.9c-0.1-0.5-0.22-1.01-0.26-1.52
		c-0.12-1.58,0.36-2.93,1.69-3.85c1.33-0.92,2.78-0.97,4.19-0.22c1.27,0.68,2.46,1.48,3.69,2.23c0.29,0.17,0.57,0.35,1.07,0.65
		c-0.19-1.77-0.37-3.34-0.54-4.92c-0.51-4.87-1.02-9.74-1.5-14.62c-0.09-0.88-0.1-1.79-0.02-2.67c0.16-1.73,0.97-3.08,2.65-3.72
		c1.66-0.64,3.18-0.25,4.5,0.87c0.51,0.44,1,0.96,1.35,1.54c5.5,9.26,13.15,16.42,21.83,22.6c3.91,2.78,7.7,5.72,11.52,8.63
		c7.4,5.64,11.65,13.09,12.98,22.31c0.59,4.12,1.06,8.22,0.78,12.45c0.24-0.03,0.4-0.01,0.54-0.06c7.41-2.57,15.1-3.95,22.8-5.2
		c14.52-2.34,29.14-3.27,43.83-2.68c12.19,0.48,24.23,1.99,35.95,5.53c1.96,0.59,3.86,1.4,5.79,2.11c0.28,0.1,0.55,0.22,0.89,0.35
		c0-0.66,0.01-1.24,0-1.81c-0.17-6.69,1-13.17,3.19-19.47c1.5-4.32,4.26-7.84,7.63-10.81c3.28-2.89,6.79-5.54,10.26-8.22
		c3.44-2.66,6.98-5.19,10.41-7.87c5.95-4.64,10.85-10.24,14.87-16.61c0.53-0.84,1.08-1.68,1.76-2.4c1.33-1.41,2.98-1.97,4.86-1.28
		c1.9,0.71,2.78,2.27,2.71,4.2c-0.11,2.97-0.38,5.95-0.67,8.91c-0.44,4.43-0.95,8.85-1.46,13.44c1.22-0.78,2.33-1.48,3.44-2.18
		c0.67-0.42,1.33-0.85,2.02-1.23c1.47-0.8,2.97-0.85,4.37,0.12c1.4,0.97,1.96,2.41,1.66,4.05c-0.45,2.46-1.06,4.88-1.61,7.32
		c-1.12,4.98-1.98,10.01-2.28,15.35c0.4-0.34,0.66-0.57,0.92-0.8c2.24-1.98,4.51-3.91,7.34-5.03c0.79-0.31,1.62-0.58,2.46-0.7
		c2.85-0.43,5.34,1.38,5.42,4.25c0.07,2.27-0.26,4.58-0.67,6.82c-1.48,8.03-2.51,16.11-3.13,24.24c-0.2,2.57-0.03,5.17-0.03,7.87
		c0.43-0.55,0.86-1.07,1.24-1.61c1.24-1.77,2.45-3.55,3.69-5.32c0.37-0.53,0.74-1.08,1.21-1.53c1.5-1.43,3.66-1.32,4.83,0.38
		c0.68,0.99,1.19,2.17,1.49,3.34c1.71,6.75,2.31,13.63,2.33,20.57c0,0.37,0,0.74,0,1.3c0.34-0.31,0.57-0.48,0.76-0.69
		c2.09-2.29,3.78-4.86,5.19-7.62c0.54-1.06,1.15-2.11,1.89-3.05c1.17-1.48,2.74-1.99,4.59-1.46c0.07,0.02,0.13,0.05,0.2,0.06
		c3.23,0.8,3.66,1.37,4.13,4.64c0.51,3.52,1.2,7,1.75,10.51c1.3,8.34,1.17,16.66-0.67,24.92c-0.04,0.19-0.07,0.39-0.13,0.71
		c0.56-0.13,1.01-0.24,1.46-0.33c3.88-0.79,6.85,1.54,6.7,5.49c-0.09,2.42-0.6,4.82-0.91,7.23c-0.4,3.13-0.8,6.25-1.2,9.38
		c-0.02,0.19-0.03,0.39-0.04,0.6c1.35-0.16,2.63-0.39,3.91-0.45c1.05-0.04,2.12,0.09,3.17,0.2c3.35,0.35,4.2,4.07,3.64,6.24
		c-0.78,3.03-1.29,6.14-1.95,9.36c0.4-0.09,0.65-0.13,0.88-0.2c2.72-0.83,5.18,0.5,5.86,3.27c0.96,3.87,1.11,7.75-0.6,11.46
		c-1.38,3.01-2.77,6.05-4.46,8.89c-1.05,1.76-2.62,3.23-4.05,4.74c-1.17,1.23-2.49,2.32-3.82,3.55c0.25,0.11,0.36,0.19,0.49,0.21
		c5.88,1.17,9.73,4.8,12.09,10.12c2.49,5.6,3.03,11.57,2.92,17.6c-0.23,12.75-3.87,24.48-10.77,35.21
		c-2.76,4.3-6.01,8.16-10.19,11.17c-0.29,0.21-0.53,0.63-0.59,0.99c-0.74,4.59-2.08,8.99-3.76,13.32c-0.71,1.83-1.14,3.78-1.68,5.65
		c1.88,0.8,3.85,1.51,5.69,2.45c12.92,6.59,23.66,15.78,32.42,27.31c6.2,8.15,11.09,16.98,13.89,26.86
		c0.73,2.59,1.16,5.29,1.44,7.97c0.3,2.85-0.49,5.46-2.89,7.31c-1.73,1.34-3.78,1.69-5.86,1.31c-3.46-0.65-6.9-1.46-10.33-2.24
		c-5.72-1.3-11.5-2.21-17.35-2.66C589.19,454.36,589.06,454.38,588.78,454.39z M322.69,117.87c2.95,3.63,6.24,6.92,9.87,9.86
		c2.29,1.85,4.49,3.82,6.71,5.75c2.02,1.75,3.54,3.89,4.71,6.29c1.65,3.39,2.63,6.97,3.32,10.66c1.03,5.5,0.91,11.05,0.83,16.6
		c-0.16,10.76,0.7,21.43,3.3,31.91c2.09,8.44,4.72,16.69,9.46,24.09c5.32,8.31,10.38,16.77,14.95,25.53
		c3.1,5.95,6.86,11.56,9.84,17.57c4.03,8.12,7.61,16.47,11.36,24.74c2.08,4.58,3.91,9.31,7.6,12.93c2.17,2.13,4.28,4.34,6.61,6.29
		c2.17,1.82,3.08,1.78,5.41,0.12c1.44-1.03,2.89-2.15,4-3.51c3.45-4.26,6.78-8.6,10.05-13c1.05-1.41,1.84-3.05,2.57-4.66
		c2.71-5.96,5.12-12.05,8.05-17.89c3.18-6.33,6.86-12.4,10.22-18.65c5.37-9.99,10.82-19.92,17.04-29.43c1.7-2.6,3.17-5.39,4.37-8.25
		c4.61-11.03,7.3-22.55,8.02-34.47c0.37-6.11,0.32-12.26,0.36-18.39c0.04-5.44,0.47-10.81,1.92-16.07
		c1.5-5.45,3.99-10.26,8.54-13.82c1.78-1.39,3.43-2.95,5.19-4.37c4.1-3.3,7.77-7.03,11.14-11.07c0.22-0.27,0.41-0.56,0.61-0.83
		c-6.59,4.99-13.17,9.92-19.67,14.94c-1.73,1.33-3.27,2.92-4.8,4.48c-1.67,1.71-2.97,3.68-3.71,5.98
		c-1.59,4.96-2.63,10.01-2.48,15.24c0.09,3.15,0.4,6.29,0.61,9.43c0.68,10.44-1.13,20.54-4.22,30.46
		c-3.13,10.04-7.93,19.3-13.12,28.39c-3.8,6.66-7.75,13.27-11.08,20.16c-6.03,12.46-12.15,24.86-18.78,37.01
		c-2.81,5.14-5.76,10.2-9.46,14.78c-1.48,1.83-3.36,3.12-5.34,4.27c-0.77,0.45-1.74,0.68-2.64,0.74c-3.15,0.23-5.56-1.29-7.47-3.6
		c-1.32-1.61-2.57-3.31-3.59-5.13c-3.16-5.64-6.21-11.34-9.28-17.03c-0.6-1.11-1.01-2.33-1.62-3.43c-1.81-3.26-3.71-6.48-5.53-9.74
		c-6.17-11.07-11.97-22.33-17.11-33.93c-0.64-1.44-1.33-2.86-2.11-4.22c-3.91-6.88-7.68-13.84-10.56-21.24
		c-3.41-8.76-5.78-17.77-6.62-27.16c-0.51-5.66-0.07-11.3,0.4-16.93c0.53-6.28-0.48-12.37-2.46-18.3c-1.28-3.81-3.99-6.65-7.03-9.06
		C335,127.15,328.81,122.55,322.69,117.87z M300.03,305.36c-0.13,0.2-0.23,0.34-0.31,0.48c-1.75,3.41-3.52,6.81-5.25,10.24
		c-3.63,7.17-6.51,14.71-10.89,21.65c8.89,5.07,18.41,8.53,28.32,11.23c-0.69-11.56,1.5-22.22,8.07-31.83
		C313.33,313.2,306.73,309.31,300.03,305.36z M356.15,294.22c0.06-0.06,0.13-0.12,0.19-0.19c-0.01-0.06,0-0.14-0.04-0.18
		c-0.24-0.29-0.5-0.57-0.75-0.85c-8.63-9.61-16.26-19.96-22.77-31.13c-9.55-16.37-16.58-33.74-20.64-52.24
		c-2.15-9.79-2.83-19.8-3.2-29.8c-0.38-10.24-0.85-20.47-1.92-30.66c-0.31-2.92-0.72-5.82-1.09-8.73c-0.16,0.2-0.19,0.4-0.2,0.6
		c-0.07,4.76-0.11,9.52-0.23,14.28c-0.1,4.14-0.24,8.29-0.46,12.43c-0.67,12.4-0.23,24.75,2.26,36.93c6.26,30.65,19.8,57.69,40.7,81
		C350.63,288.6,353.43,291.37,356.15,294.22z M473.11,293.97c0.06,0.05,0.12,0.1,0.19,0.15c0.2-0.18,0.41-0.36,0.6-0.54
		c16.65-16.2,29.4-35.06,38.37-56.47c8.24-19.66,12.87-40.06,12.44-61.47c-0.1-5-0.39-10-0.53-14.99
		c-0.17-6.57-0.27-13.15-0.41-19.73c0-0.16-0.04-0.31-0.06-0.47c-0.67,4.24-1.32,8.47-1.6,12.73c-0.72,10.9-1.27,21.81-1.88,32.72
		c-0.64,11.35-2.07,22.57-5.28,33.52c-8.08,27.61-21.7,52.13-40.93,73.53C473.72,293.28,473.42,293.63,473.11,293.97z
		 M277.06,291.03c-0.15,0.41-0.32,0.79-0.42,1.17c-0.69,2.58-1.42,5.14-2.02,7.74c-0.4,1.72-0.83,3.49-0.82,5.23
		c0.01,3.28,0.28,6.57,0.52,9.85c0.36,5.03,0.99,10.02,2.48,14.86c0.17,0.56,0.41,1.1,0.62,1.65c0.09,0,0.18,0.01,0.27,0.01
		c4.96-10.21,9.92-20.42,14.92-30.7C287.58,297.68,282.35,294.38,277.06,291.03z M580.52,350.27c0.06,0.02,0.13,0.04,0.19,0.06
		c0.58-0.96,1.16-1.92,1.73-2.89c5.92-9.95,8.69-20.71,8.34-32.27c-0.1-3.34-0.61-6.61-1.88-9.73c-0.64-1.58-1.53-2.98-2.84-4.1
		c-2.08-1.77-5.33-2.23-7.4-1.11c-0.63,0.34-0.75,0.72-0.62,1.4c0.67,3.6,1.4,7.2,1.89,10.83c1.3,9.66,1.84,19.37,1.21,29.11
		C580.96,344.47,580.73,347.37,580.52,350.27z M555.15,329.8c-2.63-5.58-5.22-11.07-7.82-16.57c-6.3,2.9-12.4,5.7-18.58,8.55
		c3.64,4.53,5.53,9.73,6.69,15.32C542.24,335.34,548.71,332.99,555.15,329.8z M568.45,395.46c3.15,1.76,6.18,3.42,9.17,5.14
		c6.88,3.95,13.12,8.72,18.46,14.6c2.13,2.34,3.94,4.91,5.04,7.93c1.41,3.87,0.1,7.71-3.52,9.68c-1.61,0.88-3.35,1.59-5.12,2.08
		c-5.47,1.52-10.99,2.89-16.49,4.34c-1.5,0.39-2.98,0.85-4.47,1.28c14.27-1.45,28.48-1.33,42.72,0.77
		c-8.95-21.64-24.03-37.37-44.97-47.79C568.94,394.31,568.7,394.87,568.45,395.46z M271.57,440.54c-0.48-0.15-0.95-0.33-1.44-0.45
		c-5.3-1.39-10.6-2.75-15.9-4.15c-3.08-0.81-6.19-1.56-8.96-3.21c-2.94-1.75-4.31-4.57-3.68-7.92c0.26-1.35,0.77-2.7,1.4-3.94
		c1.79-3.53,4.49-6.36,7.32-9.07c6.45-6.18,13.97-10.77,21.8-14.93c0.32-0.17,0.64-0.36,1.02-0.58c-0.31-0.68-0.59-1.28-0.93-2.03
		c-20.12,10.59-34.75,26-43.57,47.22C243.13,439.17,257.32,439.08,271.57,440.54z M359.53,316.94c0.05-0.05,0.09-0.1,0.14-0.15
		c-0.15-0.14-0.3-0.28-0.45-0.41c-9-7.56-17.98-15.13-27-22.67c-11.1-9.28-21.85-18.93-31.95-29.3
		c-11.6-11.91-21.5-25.03-28.66-40.11c-0.22-0.46-0.33-1.06-0.69-1.35c-1.11-0.88-2.31-1.65-3.54-2.5c0,0.22-0.02,0.32,0,0.41
		c2.02,7.89,5.1,15.32,9.63,22.12c3.56,5.34,7.9,10,12.56,14.36c8.33,7.79,16.89,15.35,25.08,23.28
		c13.62,13.19,27.95,25.47,43.94,35.72C358.91,316.55,359.22,316.74,359.53,316.94z M469.88,316.76c0.03,0.06,0.07,0.11,0.1,0.17
		c0.17-0.09,0.34-0.17,0.5-0.27c10.39-6.97,20.67-14.1,29.9-22.59c8.27-7.61,16.47-15.29,24.69-22.96
		c6.33-5.91,12.74-11.75,18.93-17.82c9.01-8.82,14.79-19.54,17.97-31.7c0.09-0.34,0.16-0.68,0.27-1.2c-1.3,0.9-2.43,1.66-3.54,2.46
		c-0.18,0.13-0.29,0.37-0.4,0.58c-1.62,3.21-3.07,6.51-4.89,9.61c-7.42,12.62-16.55,23.9-26.91,34.24
		c-14.38,14.35-30.11,27.16-45.49,40.38C477.37,310.78,473.59,313.73,469.88,316.76z M263.52,299.85c-0.5-0.08-0.89-0.2-1.28-0.21
		c-3.37-0.12-5.77,1.48-7.35,4.35c-1.39,2.53-2.09,5.29-2.35,8.14c-1.09,11.99,1.39,23.22,7.21,33.74c0.13,0.24,0.31,0.46,0.47,0.69
		c-0.5-7.86-0.63-15.66-0.05-23.47C260.75,315.3,261.72,307.57,263.52,299.85z M375.98,314.53c-0.1,0.1-0.19,0.2-0.29,0.3
		c0.21,0.27,0.4,0.55,0.62,0.81c2.26,2.71,4.45,5.48,6.8,8.11c4.5,5.02,8.57,10.44,13.86,14.71c3.79,3.06,7.53,6.14,12.09,8.05
		c4.54,1.9,8.96,1.93,13.14-0.8c4.73-3.08,9.47-6.16,14-9.53c3.53-2.63,6.97-5.47,10.03-8.62c3.69-3.8,6.94-8.02,10.38-12.07
		c0.1-0.12,0.16-0.28,0.24-0.43c-0.32,0.15-0.55,0.35-0.78,0.56c-8.47,7.59-16.96,15.16-26.26,21.75c-4.02,2.85-7.99,5.8-12.58,7.72
		c-0.52,0.22-1.14,0.43-1.67,0.34c-1.71-0.28-3.46-0.53-5.09-1.1c-4.71-1.66-8.49-4.81-12.23-7.98
		c-7.64-6.48-14.59-13.68-21.57-20.85C376.41,315.22,376.22,314.86,375.98,314.53z M263.34,196.42c0.17,1.55,0.29,2.87,0.47,4.19
		c0.12,0.95,0.11,1.98,0.51,2.8c0.81,1.69,1.77,3.33,2.81,4.89c2.54,3.82,6.27,6.24,10.15,8.48c4.86,2.81,9.7,5.65,14.55,8.47
		c0.07,0.04,0.17,0.03,0.38,0.06c-1.79-2.99-3-6.1-3.86-9.35c-0.07-0.27-0.29-0.55-0.51-0.73c-3.92-3.16-7.77-6.4-12.27-8.74
		c-4.61-2.4-8.66-5.51-11.78-9.73C263.73,196.69,263.63,196.65,263.34,196.42z M537.51,225.33c2.18-1.34,4.33-2.74,6.55-4.02
		c3.53-2.04,7.13-3.93,10.64-6c4.16-2.45,7.45-5.76,9.6-10.15c0.61-1.23,1.28-2.39,1.37-3.81c0.09-1.58,0.31-3.15,0.48-4.72
		c-0.33,0.09-0.47,0.22-0.58,0.38c-2.75,3.64-6.14,6.55-10.16,8.67c-4.94,2.61-9.34,5.95-13.61,9.51c-0.27,0.22-0.53,0.56-0.62,0.88
		C540.3,219.28,539.11,222.36,537.51,225.33z M536.24,443.34c2.54-0.99,5.09-1.97,7.62-3c0.65-0.26,1.29-0.64,1.79-1.13
		c3.98-3.83,7.54-8.03,10.78-12.51c4.88-6.75,8.22-14.27,11.01-22.06c0.09-0.25,0.04-0.75-0.13-0.88c-0.64-0.48-1.35-0.85-2.09-1.29
		C557.58,417.66,547.94,431.22,536.24,443.34z M563.21,325.51c2.03-1.42,4.05-2.86,6.11-4.25c0.57-0.38,0.72-0.81,0.63-1.46
		c-0.22-1.69-0.32-3.41-0.59-5.1c-0.61-3.94-1.29-7.88-1.97-11.93c-4.24,2.28-8.3,4.46-12.3,6.61
		C557.78,314.72,560.45,320.03,563.21,325.51z M303.75,441.96c-11.02-11.51-20.05-24.4-27.28-38.51c-1.04,0.22-0.99,0.74-0.74,1.47
		c4.31,12.57,11.07,23.61,20.41,33.11C298.32,440.26,301.07,440.89,303.75,441.96z M478.1,340.34c-8.77,1.74-17.51,3.47-26,5.15
		c4.75,1.68,22.37,3.02,26.97,1.98C478.75,345.06,478.42,342.66,478.1,340.34z M315.8,157.4c-0.1,0.02-0.21,0.05-0.31,0.07
		c0.26,1.13,0.5,2.27,0.77,3.4c1.84,7.65,3.73,15.3,5.53,22.96c5.72,24.23,15.12,46.94,28.21,68.12c0.21,0.34,0.44,0.68,0.66,1.01
		c0.05-0.34-0.06-0.58-0.18-0.81c-11-20.12-19.75-41.17-26.16-63.17c-2.31-7.95-4.27-16-6.41-24
		C317.24,162.44,316.51,159.92,315.8,157.4z M478.67,252.83c0.06,0.05,0.13,0.09,0.19,0.14c0.24-0.37,0.48-0.74,0.71-1.11
		c13.22-21.39,22.63-44.35,28.36-68.83c1.83-7.83,3.82-15.62,5.72-23.44c0.17-0.7,0.2-1.44,0.29-2.16
		c-1.52,4.6-3.06,9.17-4.12,13.85c-6.28,27.66-16.4,53.86-29.69,78.88C479.66,251.06,479.16,251.94,478.67,252.83z M314.53,120.21
		c-0.08,0.07-0.16,0.14-0.24,0.21c0.24,2.86,0.45,5.72,0.73,8.58c0.03,0.33,0.34,0.75,0.63,0.93c2.37,1.43,4.77,2.81,7.16,4.2
		c6.27,3.63,11.92,7.91,15.56,14.38c0.04,0.08,0.13,0.12,0.32,0.3c-1.09-3.94-2.33-7.6-5.55-10.21c-1.7-1.38-3.28-2.91-4.99-4.27
		c-5.01-3.98-9.47-8.5-13.37-13.56C314.66,120.62,314.61,120.4,314.53,120.21z M514.31,121.48c-0.41,0.46-0.63,0.71-0.84,0.96
		c-3.54,4.21-7.36,8.12-11.66,11.56c-2.14,1.71-4.19,3.54-6.22,5.37c-2.76,2.49-3.73,5.88-4.63,9.31c1.61-2.66,3.47-5.1,5.72-7.24
		c3.66-3.48,7.85-6.18,12.29-8.53c1.36-0.72,2.69-1.5,4-2.31c0.31-0.19,0.65-0.59,0.68-0.93
		C513.9,127.04,514.08,124.41,514.31,121.48z M269.62,248.62c0.06-0.1,0.12-0.19,0.18-0.29c-0.11-0.16-0.22-0.33-0.34-0.48
		c-3.77-4.71-7.36-9.55-10.38-14.78c-0.13-0.23-0.31-0.49-0.54-0.59c-1.33-0.6-2.68-1.16-4.16-1.78c0.22,1.99,0.42,3.82,0.63,5.65
		c0.02,0.19,0.14,0.39,0.27,0.54c2.59,3.15,5.23,6.29,8.68,8.54C265.77,246.61,267.73,247.57,269.62,248.62z M575.15,230.7
		c-1.38,0.59-2.65,1.09-3.89,1.67c-0.34,0.16-0.64,0.49-0.86,0.81c-2.74,3.97-5.44,7.97-8.19,11.94c-0.77,1.11-1.66,2.14-2.49,3.21
		c1.13-0.29,2.15-0.74,3.14-1.24c4.69-2.4,8.14-6.2,11.39-10.21c0.16-0.2,0.26-0.49,0.29-0.75
		C574.75,234.4,574.93,232.66,575.15,230.7z M386.41,343.72c-6.43-1.63-12.57-3.18-18.71-4.74c0,2.69,0,5.37,0,8.16
		C373.93,346.01,380.04,344.89,386.41,343.72z M292.39,144.69c0.19,1.39,0.34,2.57,0.53,3.74c0.1,0.6,0.16,1.26,0.46,1.76
		c2.17,3.7,3.5,7.72,4.58,11.83c0.09,0.33,0.17,0.66,0.26,0.99c0.11-0.01,0.21-0.02,0.32-0.03c0.22-4.06,0.44-8.12,0.62-12.18
		c0.01-0.27-0.22-0.62-0.44-0.81c-1.79-1.53-3.61-3.03-5.42-4.54C293.05,145.24,292.8,145.03,292.39,144.69z M531.01,163.01
		c0.1-0.01,0.2-0.01,0.3-0.02c1.08-4.07,2.15-8.16,4.35-11.8c1.19-1.99,0.96-4.19,1.39-6.32c-0.39,0.21-0.69,0.47-0.98,0.74
		c-1.1,0.98-2.07,2.17-3.32,2.89c-2,1.16-2.61,2.61-2.32,4.9C530.83,156.58,530.83,159.8,531.01,163.01z M579.56,453.96
		c0.41,0.49,0.71,0.77,0.92,1.11c1.11,1.8,2.45,3.5,3.22,5.43c1.43,3.57-0.76,6.02-4.54,5.37c-0.83-0.14-1.68-0.22-2.52-0.33
		c-0.01,0.06-0.02,0.12-0.03,0.18c3.96,1.04,7.92,2.08,12.03,3.15c-0.11-0.49-0.15-0.75-0.23-1.01c-1.44-4.7-3.66-9.05-5.94-13.38
		c-0.12-0.23-0.43-0.48-0.67-0.5C581.14,453.92,580.46,453.96,579.56,453.96z M270.08,454.07c-0.34-0.03-0.61-0.02-0.87-0.07
		c-1.11-0.23-1.73,0.2-2.2,1.25c-1.24,2.77-2.65,5.47-3.89,8.24c-0.73,1.63-1.26,3.36-1.87,5.04c0.07,0.08,0.14,0.16,0.22,0.25
		c3.87-1.01,7.74-2.03,11.61-3.04c-1.16-0.01-2.29,0.2-3.43,0.24c-2.72,0.11-4.36-1.78-3.77-4.44c0.27-1.21,0.81-2.4,1.44-3.48
		C268.1,456.7,269.1,455.47,270.08,454.07z"/>
	<path class="st0" d="M322.69,117.87c6.12,4.68,12.3,9.28,18.34,14.06c3.05,2.41,5.76,5.25,7.03,9.06
		c1.99,5.93,2.99,12.02,2.46,18.3c-0.47,5.64-0.91,11.27-0.4,16.93c0.85,9.39,3.21,18.4,6.62,27.16c2.88,7.4,6.65,14.35,10.56,21.24
		c0.78,1.37,1.47,2.78,2.11,4.22c5.14,11.59,10.94,22.85,17.11,33.93c1.82,3.26,3.72,6.48,5.53,9.74c0.61,1.1,1.02,2.32,1.62,3.43
		c3.07,5.69,6.12,11.4,9.28,17.03c1.02,1.81,2.26,3.52,3.59,5.13c1.91,2.31,4.32,3.83,7.47,3.6c0.9-0.07,1.87-0.3,2.64-0.74
		c1.98-1.15,3.87-2.44,5.34-4.27c3.7-4.58,6.65-9.63,9.46-14.78c6.64-12.14,12.75-24.55,18.78-37.01
		c3.34-6.89,7.28-13.5,11.08-20.16c5.19-9.09,9.99-18.35,13.12-28.39c3.09-9.92,4.9-20.02,4.22-30.46
		c-0.21-3.14-0.52-6.29-0.61-9.43c-0.15-5.23,0.9-10.29,2.48-15.24c0.73-2.3,2.04-4.27,3.71-5.98c1.53-1.57,3.08-3.15,4.8-4.48
		c6.5-5.03,13.08-9.95,19.67-14.94c-0.2,0.27-0.39,0.57-0.61,0.83c-3.36,4.04-7.04,7.76-11.14,11.07c-1.76,1.42-3.41,2.97-5.19,4.37
		c-4.55,3.57-7.04,8.37-8.54,13.82c-1.45,5.26-1.89,10.63-1.92,16.07c-0.04,6.13,0.01,12.27-0.36,18.39
		c-0.72,11.92-3.41,23.44-8.02,34.47c-1.2,2.86-2.67,5.66-4.37,8.25c-6.21,9.5-11.66,19.44-17.04,29.43
		c-3.36,6.24-7.04,12.32-10.22,18.65c-2.93,5.84-5.35,11.94-8.05,17.89c-0.73,1.61-1.53,3.24-2.57,4.66c-3.26,4.4-6.6,8.75-10.05,13
		c-1.1,1.36-2.56,2.49-4,3.51c-2.33,1.66-3.24,1.7-5.41-0.12c-2.33-1.95-4.44-4.16-6.61-6.29c-3.69-3.63-5.52-8.35-7.6-12.93
		c-3.75-8.27-7.33-16.61-11.36-24.74c-2.98-6-6.74-11.62-9.84-17.57c-4.56-8.76-9.63-17.22-14.95-25.53
		c-4.74-7.4-7.36-15.65-9.46-24.09c-2.6-10.47-3.46-21.14-3.3-31.91c0.08-5.55,0.2-11.1-0.83-16.6c-0.69-3.68-1.67-7.27-3.32-10.66
		c-1.17-2.4-2.69-4.54-4.71-6.29c-2.23-1.93-4.42-3.89-6.71-5.75C328.93,124.79,325.64,121.51,322.69,117.87z"/>
	<path class="st0" d="M300.03,305.36c6.7,3.95,13.3,7.85,19.95,11.76c-6.57,9.61-8.77,20.27-8.07,31.83
		c-9.91-2.69-19.43-6.16-28.32-11.23c4.38-6.93,7.26-14.48,10.89-21.65c1.73-3.42,3.5-6.83,5.25-10.24
		C299.79,305.69,299.9,305.56,300.03,305.36z"/>
	<path class="st0" d="M356.15,294.22c-2.72-2.84-5.52-5.61-8.14-8.54c-20.9-23.31-34.44-50.35-40.7-81
		c-2.49-12.18-2.92-24.53-2.26-36.93c0.22-4.14,0.36-8.28,0.46-12.43c0.12-4.76,0.15-9.52,0.23-14.28c0-0.2,0.03-0.4,0.2-0.6
		c0.37,2.91,0.78,5.82,1.09,8.73c1.07,10.19,1.54,20.42,1.92,30.66c0.37,10,1.05,20.01,3.2,29.8c4.06,18.51,11.09,35.88,20.64,52.24
		c6.52,11.17,14.14,21.52,22.77,31.13c0.25,0.28,0.5,0.56,0.75,0.85c0.04,0.04,0.03,0.12,0.04,0.18
		C356.28,294.09,356.21,294.15,356.15,294.22z"/>
	<path class="st0" d="M473.11,293.97c0.31-0.34,0.61-0.69,0.92-1.03c19.23-21.4,32.85-45.92,40.93-73.53
		c3.2-10.95,4.64-22.17,5.28-33.52c0.61-10.91,1.17-21.82,1.88-32.72c0.28-4.26,0.93-8.49,1.6-12.73c0.02,0.16,0.06,0.31,0.06,0.47
		c0.13,6.58,0.24,13.15,0.41,19.73c0.13,5,0.43,9.99,0.53,14.99c0.43,21.41-4.21,41.81-12.44,61.47
		c-8.97,21.41-21.72,40.27-38.37,56.47c-0.19,0.19-0.4,0.36-0.6,0.54C473.24,294.07,473.18,294.02,473.11,293.97z"/>
	<path class="st0" d="M277.06,291.03c5.29,3.34,10.52,6.64,15.54,9.81c-5,10.28-9.96,20.49-14.92,30.7c-0.09,0-0.18-0.01-0.27-0.01
		c-0.21-0.55-0.45-1.09-0.62-1.65c-1.49-4.84-2.12-9.83-2.48-14.86c-0.23-3.28-0.51-6.56-0.52-9.85c0-1.74,0.43-3.51,0.82-5.23
		c0.6-2.6,1.33-5.16,2.02-7.74C276.74,291.82,276.91,291.45,277.06,291.03z"/>
	<path class="st0" d="M580.52,350.27c0.21-2.9,0.44-5.79,0.63-8.69c0.63-9.75,0.09-19.45-1.21-29.11
		c-0.49-3.63-1.22-7.22-1.89-10.83c-0.13-0.69-0.01-1.06,0.62-1.4c2.07-1.13,5.32-0.66,7.4,1.11c1.31,1.12,2.19,2.52,2.84,4.1
		c1.27,3.12,1.78,6.39,1.88,9.73c0.34,11.56-2.43,22.33-8.34,32.27c-0.57,0.96-1.15,1.92-1.73,2.89
		C580.65,350.31,580.59,350.29,580.52,350.27z"/>
	<path class="st0" d="M555.15,329.8c-6.44,3.19-12.91,5.54-19.71,7.29c-1.16-5.58-3.04-10.78-6.69-15.32
		c6.19-2.84,12.28-5.65,18.58-8.55C549.93,318.74,552.52,324.22,555.15,329.8z"/>
	<path class="st0" d="M568.45,395.46c0.25-0.59,0.49-1.15,0.83-1.97c20.94,10.42,36.02,26.15,44.97,47.79
		c-14.24-2.1-28.45-2.22-42.72-0.77c1.49-0.43,2.97-0.89,4.47-1.28c5.5-1.45,11.01-2.82,16.49-4.34c1.77-0.49,3.51-1.2,5.12-2.08
		c3.62-1.98,4.93-5.81,3.52-9.68c-1.1-3.02-2.91-5.58-5.04-7.93c-5.35-5.88-11.59-10.65-18.46-14.6
		C574.63,398.88,571.6,397.22,568.45,395.46z"/>
	<path class="st0" d="M271.57,440.54c-14.25-1.47-28.45-1.38-42.95,0.93c8.82-21.22,23.45-36.63,43.57-47.22
		c0.35,0.75,0.62,1.36,0.93,2.03c-0.38,0.22-0.69,0.41-1.02,0.58c-7.83,4.16-15.36,8.75-21.8,14.93c-2.83,2.71-5.53,5.54-7.32,9.07
		c-0.63,1.23-1.14,2.58-1.4,3.94c-0.63,3.35,0.74,6.17,3.68,7.92c2.78,1.65,5.88,2.4,8.96,3.21c5.29,1.4,10.6,2.77,15.9,4.15
		C270.62,440.22,271.1,440.39,271.57,440.54z"/>
	<path class="st0" d="M359.53,316.94c-0.31-0.2-0.62-0.39-0.92-0.59c-16-10.25-30.33-22.53-43.94-35.72
		c-8.19-7.94-16.75-15.49-25.08-23.28c-4.66-4.36-9-9.02-12.56-14.36c-4.53-6.8-7.61-14.23-9.63-22.12c-0.02-0.09,0-0.2,0-0.41
		c1.23,0.85,2.44,1.62,3.54,2.5c0.36,0.29,0.47,0.89,0.69,1.35c7.15,15.09,17.05,28.21,28.66,40.11
		c10.1,10.37,20.86,20.02,31.95,29.3c9.01,7.54,18,15.11,27,22.67c0.16,0.13,0.3,0.27,0.45,0.41
		C359.62,316.84,359.57,316.89,359.53,316.94z"/>
	<path class="st0" d="M469.88,316.76c3.71-3.03,7.5-5.98,11.13-9.11c15.37-13.22,31.1-26.03,45.49-40.38
		c10.37-10.34,19.49-21.62,26.91-34.24c1.82-3.09,3.27-6.4,4.89-9.61c0.11-0.21,0.22-0.45,0.4-0.58c1.11-0.79,2.24-1.56,3.54-2.46
		c-0.12,0.52-0.18,0.86-0.27,1.2c-3.18,12.16-8.96,22.88-17.97,31.7c-6.19,6.06-12.6,11.9-18.93,17.82
		c-8.21,7.67-16.41,15.35-24.69,22.96c-9.23,8.49-19.51,15.62-29.9,22.59c-0.16,0.11-0.33,0.18-0.5,0.27
		C469.94,316.87,469.91,316.82,469.88,316.76z"/>
	<path class="st0" d="M263.52,299.85c-1.8,7.72-2.78,15.45-3.36,23.25c-0.58,7.81-0.44,15.6,0.05,23.47
		c-0.16-0.23-0.34-0.45-0.47-0.69c-5.81-10.52-8.29-21.75-7.21-33.74c0.26-2.85,0.96-5.62,2.35-8.14c1.58-2.87,3.98-4.47,7.35-4.35
		C262.64,299.65,263.03,299.76,263.52,299.85z"/>
	<path class="st0" d="M375.98,314.53c0.23,0.33,0.43,0.69,0.71,0.97c6.98,7.17,13.93,14.36,21.57,20.85
		c3.74,3.17,7.52,6.32,12.23,7.98c1.63,0.57,3.37,0.82,5.09,1.1c0.53,0.09,1.15-0.13,1.67-0.34c4.59-1.92,8.56-4.87,12.58-7.72
		c9.3-6.59,17.79-14.16,26.26-21.75c0.23-0.2,0.46-0.41,0.78-0.56c-0.08,0.14-0.14,0.3-0.24,0.43c-3.44,4.04-6.69,8.27-10.38,12.07
		c-3.06,3.15-6.5,6-10.03,8.62c-4.52,3.37-9.27,6.44-14,9.53c-4.18,2.73-8.6,2.7-13.14,0.8c-4.56-1.91-8.3-4.99-12.09-8.05
		c-5.3-4.28-9.37-9.7-13.86-14.71c-2.35-2.62-4.54-5.4-6.8-8.11c-0.22-0.26-0.41-0.54-0.62-0.81
		C375.79,314.73,375.89,314.63,375.98,314.53z"/>
	<path class="st0" d="M263.34,196.42c0.29,0.23,0.38,0.28,0.44,0.35c3.12,4.22,7.17,7.33,11.78,9.73c4.5,2.35,8.36,5.59,12.27,8.74
		c0.22,0.18,0.44,0.46,0.51,0.73c0.86,3.25,2.07,6.37,3.86,9.35c-0.21-0.03-0.31-0.02-0.38-0.06c-4.85-2.82-9.69-5.67-14.55-8.47
		c-3.88-2.24-7.61-4.66-10.15-8.48c-1.04-1.56-2-3.2-2.81-4.89c-0.39-0.83-0.39-1.86-0.51-2.8
		C263.64,199.29,263.51,197.96,263.34,196.42z"/>
	<path class="st0" d="M537.51,225.33c1.6-2.97,2.79-6.05,3.66-9.27c0.09-0.33,0.35-0.66,0.62-0.88c4.27-3.55,8.67-6.9,13.61-9.51
		c4.01-2.12,7.41-5.03,10.16-8.67c0.12-0.15,0.25-0.29,0.58-0.38c-0.16,1.57-0.38,3.14-0.48,4.72c-0.09,1.42-0.76,2.58-1.37,3.81
		c-2.16,4.39-5.45,7.7-9.6,10.15c-3.51,2.07-7.11,3.97-10.64,6C541.84,222.59,539.69,223.98,537.51,225.33z"/>
	<path class="st0" d="M536.24,443.34c11.69-12.12,21.33-25.68,28.97-40.87c0.73,0.44,1.45,0.81,2.09,1.29
		c0.17,0.13,0.22,0.62,0.13,0.88c-2.79,7.79-6.13,15.31-11.01,22.06c-3.23,4.48-6.8,8.68-10.78,12.51c-0.5,0.48-1.15,0.86-1.79,1.13
		C541.34,441.38,538.79,442.35,536.24,443.34z"/>
	<path class="st0" d="M563.21,325.51c-2.76-5.47-5.43-10.78-8.12-16.13c4-2.15,8.06-4.33,12.3-6.61c0.67,4.05,1.35,7.98,1.97,11.93
		c0.26,1.69,0.36,3.4,0.59,5.1c0.09,0.65-0.06,1.08-0.63,1.46C567.26,322.65,565.24,324.09,563.21,325.51z"/>
	<path class="st0" d="M303.75,441.96c-2.68-1.07-5.42-1.7-7.61-3.93c-9.34-9.5-16.09-20.54-20.41-33.11
		c-0.25-0.74-0.3-1.25,0.74-1.47C283.7,417.56,292.73,430.45,303.75,441.96z"/>
	<path class="st0" d="M478.1,340.34c0.32,2.32,0.64,4.72,0.97,7.13c-4.6,1.04-22.22-0.3-26.97-1.98
		C460.59,343.81,469.33,342.08,478.1,340.34z"/>
	<path class="st0" d="M315.8,157.4c0.71,2.52,1.44,5.04,2.12,7.57c2.14,8,4.09,16.05,6.41,24c6.41,22.01,15.16,43.06,26.16,63.17
		c0.13,0.23,0.23,0.47,0.18,0.81c-0.22-0.34-0.45-0.67-0.66-1.01c-13.09-21.18-22.49-43.89-28.21-68.12
		c-1.81-7.66-3.69-15.3-5.53-22.96c-0.27-1.13-0.51-2.26-0.77-3.4C315.59,157.44,315.7,157.42,315.8,157.4z"/>
	<path class="st0" d="M478.67,252.83c0.49-0.89,0.99-1.77,1.46-2.67c13.28-25.02,23.41-51.22,29.69-78.88
		c1.06-4.68,2.6-9.26,4.12-13.85c-0.09,0.72-0.12,1.46-0.29,2.16c-1.9,7.81-3.89,15.61-5.72,23.44
		c-5.73,24.48-15.14,47.44-28.36,68.83c-0.23,0.38-0.48,0.74-0.71,1.11C478.8,252.92,478.74,252.88,478.67,252.83z"/>
	<path class="st0" d="M314.53,120.21c0.08,0.19,0.13,0.4,0.26,0.56c3.9,5.07,8.36,9.58,13.37,13.56c1.71,1.36,3.3,2.89,4.99,4.27
		c3.22,2.62,4.46,6.27,5.55,10.21c-0.19-0.18-0.28-0.23-0.32-0.3c-3.64-6.47-9.3-10.75-15.56-14.38c-2.4-1.39-4.79-2.77-7.16-4.2
		c-0.3-0.18-0.6-0.6-0.63-0.93c-0.28-2.86-0.5-5.72-0.73-8.58C314.37,120.36,314.45,120.28,314.53,120.21z"/>
	<path class="st0" d="M514.31,121.48c-0.23,2.94-0.41,5.57-0.67,8.19c-0.03,0.33-0.37,0.74-0.68,0.93c-1.31,0.81-2.64,1.59-4,2.31
		c-4.44,2.35-8.63,5.05-12.29,8.53c-2.25,2.14-4.11,4.58-5.72,7.24c0.9-3.43,1.87-6.82,4.63-9.31c2.03-1.84,4.08-3.66,6.22-5.37
		c4.3-3.44,8.12-7.35,11.66-11.56C513.68,122.18,513.9,121.94,514.31,121.48z"/>
	<path class="st0" d="M269.62,248.62c-1.89-1.06-3.85-2.01-5.66-3.19c-3.46-2.26-6.09-5.39-8.68-8.54
		c-0.13-0.15-0.24-0.35-0.27-0.54c-0.22-1.83-0.41-3.66-0.63-5.65c1.47,0.63,2.82,1.18,4.16,1.78c0.22,0.1,0.41,0.36,0.54,0.59
		c3.02,5.24,6.62,10.07,10.38,14.78c0.12,0.15,0.23,0.32,0.34,0.48C269.73,248.43,269.68,248.53,269.62,248.62z"/>
	<path class="st0" d="M575.15,230.7c-0.22,1.97-0.4,3.7-0.61,5.43c-0.03,0.26-0.13,0.55-0.29,0.75c-3.25,4.01-6.7,7.81-11.39,10.21
		c-0.99,0.51-2.02,0.95-3.14,1.24c0.83-1.07,1.72-2.1,2.49-3.21c2.75-3.97,5.45-7.96,8.19-11.94c0.22-0.32,0.52-0.65,0.86-0.81
		C572.5,231.79,573.77,231.28,575.15,230.7z"/>
	<path class="st0" d="M386.41,343.72c-6.37,1.17-12.48,2.28-18.71,3.42c0-2.79,0-5.47,0-8.16
		C373.84,340.54,379.99,342.1,386.41,343.72z"/>
	<path class="st0" d="M292.39,144.69c0.41,0.34,0.66,0.55,0.91,0.76c1.81,1.51,3.63,3.01,5.42,4.54c0.22,0.19,0.45,0.54,0.44,0.81
		c-0.18,4.06-0.41,8.12-0.62,12.18c-0.11,0.01-0.21,0.02-0.32,0.03c-0.09-0.33-0.17-0.66-0.26-0.99c-1.08-4.12-2.4-8.14-4.58-11.83
		c-0.3-0.5-0.36-1.16-0.46-1.76C292.73,147.26,292.58,146.08,292.39,144.69z"/>
	<path class="st0" d="M531.01,163.01c-0.18-3.21-0.18-6.43-0.59-9.61c-0.29-2.29,0.32-3.74,2.32-4.9c1.25-0.72,2.22-1.91,3.32-2.89
		c0.3-0.26,0.59-0.53,0.98-0.74c-0.43,2.13-0.19,4.34-1.39,6.32c-2.19,3.64-3.26,7.73-4.35,11.8
		C531.21,162.99,531.11,163,531.01,163.01z"/>
	<path class="st0" d="M579.56,453.96c0.9,0,1.58-0.05,2.24,0.02c0.24,0.03,0.55,0.27,0.67,0.5c2.28,4.33,4.49,8.68,5.94,13.38
		c0.08,0.26,0.12,0.52,0.23,1.01c-4.1-1.08-8.06-2.11-12.03-3.15c0.01-0.06,0.02-0.12,0.03-0.18c0.84,0.11,1.69,0.18,2.52,0.33
		c3.78,0.65,5.97-1.8,4.54-5.37c-0.77-1.93-2.12-3.64-3.22-5.43C580.28,454.74,579.97,454.45,579.56,453.96z"/>
	<path class="st0" d="M270.08,454.07c-0.98,1.39-1.98,2.62-2.76,3.97c-0.63,1.08-1.16,2.27-1.44,3.48c-0.6,2.66,1.05,4.55,3.77,4.44
		c1.14-0.05,2.27-0.26,3.43-0.24c-3.87,1.01-7.74,2.03-11.61,3.04c-0.07-0.08-0.14-0.16-0.22-0.25c0.62-1.68,1.14-3.41,1.87-5.04
		c1.24-2.77,2.65-5.47,3.89-8.24c0.47-1.05,1.09-1.47,2.2-1.25C269.47,454.06,269.74,454.05,270.08,454.07z"/>
</g>
</svg>
