<?xml version="1.0" encoding="utf-8"?>
<!-- Generator: Adobe Illustrator 25.3.1, SVG Export Plug-In . SVG Version: 6.00 Build 0)  -->
<svg version="1.1" id="Layer_1" xmlns="http://www.w3.org/2000/svg" xmlns:xlink="http://www.w3.org/1999/xlink" x="0px" y="0px"
	 viewBox="0 0 841.89 595.28" style="enable-background:new 0 0 841.89 595.28;" xml:space="preserve">
<style type="text/css">
	.st0{fill:#FEFEFE;}
	.st1{fill:#242526;}
	.st2{fill:#47B4EB;}
	.st3{fill:#46B3EA;}
	.st4{fill:#46B3EB;}
	.st5{fill:#46B1E7;}
	.st6{fill:#FAFAFA;}
	.st7{fill:#46B0E6;}
	.st8{fill:#46AEE3;}
	.st9{fill:#47ADE1;}
	.st10{fill:#46B0E7;}
	.st11{fill:#45AEE4;}
	.st12{fill:#242627;}
	.st13{fill:#24282A;}
	.st14{fill:#45ADE2;}
</style>
<g>
	<path class="st0" d="M224.52,488.13c0-130.95,0-261.9,0-392.86c130.95,0,261.9,0,392.86,0c0,130.95,0,261.9,0,392.86
		C486.42,488.13,355.47,488.13,224.52,488.13z M428.84,241.42c-1.85-5.58-3.51-10.63-5.21-15.67c-9.1-26.92-18.02-53.9-27.41-80.73
		c-4.06-11.6-9.62-22.59-17.73-32.03c-12.8-14.9-32.11-16.3-46.94-3.4c-5.69,4.95-10,10.94-12.86,17.97
		c-11.77,28.98-23.66,57.92-35.28,86.96c-2.05,5.13-4.42,8.32-10.26,10.42c-14.79,5.32-24.42,16.56-29.75,31.27
		c-6.36,17.55-2.99,34.25,5.27,50.28c1.46,2.83,1.61,5.07,0.49,8.02c-2.83,7.42-5.27,15-7.85,22.52
		c-5.08,14.84-10.1,29.66-7.41,45.8c1.51,9.05,4.99,16.91,12.06,23.01c15.45,13.33,40.96,3.12,48.15-12.73
		c5.53-12.19,10.66-24.56,15.93-36.86c1.63-3.82,2.99-7.76,4.78-11.5c0.55-1.14,2.02-2.17,3.29-2.58
		c8.18-2.64,16.73-4.37,24.56-7.77c9.78-4.25,19-9.82,28.45-14.83c2.48-1.32,4.94-2.69,7.55-4.12c1.69,5.14,3.34,9.8,4.68,14.56
		c0.29,1.04-0.13,2.89-0.91,3.53c-6.49,5.31-11.42,11.84-15.35,19.13c-13.7,25.43-3.57,56.89,21.73,67.57
		c3.94,1.66,8.88,1.93,11.92,4.52c3.17,2.7,4.36,7.61,6.85,11.25c18.34,26.78,43.7,39.93,76.16,37.07
		c20.57-1.82,40.64-6.86,59.55-15.5c6.82-3.11,13.65-6.67,19.56-11.21c6.58-5.04,6.62-12.37,1.02-18.55
		c-2.6-2.86-6.03-4.94-8.97-7.51c-7.84-6.85-15.86-13.53-23.35-20.75c-7.21-6.95-8.11-15.83-5.32-25.02
		c4.76-15.63,16.54-23.08,31.74-25.94c9.59-1.8,18.59,1.36,27.56,4.18c4.22,1.33,8.35,3.06,12.66,3.95
		c7.81,1.62,13.84-2.37,15.28-10.2c0.72-3.92,0.91-8.09,0.47-12.04c-2.95-26.63-11.95-51.26-25.99-73.95
		c-16.55-26.74-40.83-40.38-72.32-40.29c-6.45,0.02-12.51,1.14-17.09-4.87c-0.92-1.21-2.87-1.91-4.47-2.28
		c-4.81-1.11-9.66-2.53-14.54-2.79c-18.93-1-39.05,6.6-48.78,27.33C430.26,238.8,429.63,239.9,428.84,241.42z"/>
	<path class="st1" d="M428.84,241.42c0.79-1.53,1.42-2.62,1.95-3.76c9.74-20.73,29.86-28.33,48.78-27.33
		c4.89,0.26,9.73,1.68,14.54,2.79c1.6,0.37,3.55,1.07,4.47,2.28c4.58,6.01,10.63,4.88,17.09,4.87
		c31.49-0.09,55.77,13.54,72.32,40.29c14.04,22.69,23.05,47.31,25.99,73.95c0.44,3.96,0.25,8.13-0.47,12.04
		c-1.44,7.83-7.47,11.82-15.28,10.2c-4.31-0.89-8.44-2.62-12.66-3.95c-8.97-2.83-17.98-5.99-27.56-4.18
		c-15.21,2.86-26.98,10.31-31.74,25.94c-2.8,9.19-1.9,18.06,5.32,25.02c7.49,7.22,15.51,13.9,23.35,20.75
		c2.94,2.57,6.37,4.65,8.97,7.51c5.61,6.18,5.56,13.51-1.02,18.55c-5.92,4.53-12.74,8.09-19.56,11.21
		c-18.91,8.63-38.98,13.68-59.55,15.5c-32.46,2.87-57.82-10.29-76.16-37.07c-2.49-3.64-3.68-8.55-6.85-11.25
		c-3.05-2.59-7.98-2.85-11.92-4.52c-25.31-10.68-35.43-42.13-21.73-67.57c3.93-7.29,8.87-13.83,15.35-19.13
		c0.78-0.64,1.2-2.49,0.91-3.53c-1.34-4.76-3-9.42-4.68-14.56c-2.61,1.43-5.06,2.8-7.55,4.12c-9.45,5.01-18.67,10.58-28.45,14.83
		c-7.83,3.4-16.38,5.14-24.56,7.77c-1.27,0.41-2.74,1.44-3.29,2.58c-1.8,3.74-3.15,7.68-4.78,11.5
		c-5.27,12.31-10.4,24.68-15.93,36.86c-7.19,15.84-32.7,26.06-48.15,12.73c-7.07-6.1-10.55-13.95-12.06-23.01
		c-2.69-16.14,2.33-30.96,7.41-45.8c2.57-7.52,5.01-15.1,7.85-22.52c1.13-2.95,0.97-5.2-0.49-8.02
		c-8.26-16.03-11.63-32.73-5.27-50.28c5.33-14.71,14.96-25.95,29.75-31.27c5.84-2.1,8.21-5.29,10.26-10.42
		c11.62-29.04,23.51-57.98,35.28-86.96c2.85-7.03,7.16-13.01,12.86-17.97c14.83-12.9,34.14-11.5,46.94,3.4
		c8.11,9.44,13.67,20.43,17.73,32.03c9.39,26.82,18.31,53.8,27.41,80.73C425.33,230.79,426.99,235.84,428.84,241.42z M415.08,285.08
		c1.45-2.14,3.28-5.31,5.57-8.1c2.16-2.62,2.34-5.01,1.28-8.21c-9.33-28.24-18.2-56.63-27.79-84.78
		c-5.71-16.77-12.1-33.33-18.99-49.65c-2.36-5.59-6.74-10.53-10.94-15.08c-4.06-4.41-9.64-5.48-15.54-3.72
		c-8.14,2.43-13.84,7.92-17.6,15.19c-3.4,6.58-6.3,13.45-8.93,20.38c-15.25,40.24-30.37,80.53-45.45,120.83
		c-0.79,2.12-1.34,4.62-1.05,6.83c2.15,16.66,19.6,30.79,36.43,29.82c2.62-0.15,4.18-0.95,5.15-3.69
		c7.17-20.29,14.4-40.56,21.88-60.73c2.67-7.19,5.87-14.21,9.27-21.09c0.82-1.66,3.5-3.52,5.12-3.34c1.44,0.16,3.15,2.8,3.78,4.68
		c1.87,5.54,3.02,11.34,4.92,16.87c4.28,12.46,8.95,24.78,13.21,37.24c0.89,2.59,1.98,2.95,4.48,2.66
		c5.16-0.62,10.47-1.54,15.53-0.91C401.89,281.09,408.18,283.32,415.08,285.08z M509.55,254.11c1.05,8.69,0.75,11.52-1.35,16.42
		c-7.6,17.72-35.86,29.12-52.64,19.83c-1.93-1.07-3.12-1.02-4.56,0.89c-10.97,14.53-19.09,30.45-23.9,48.04
		c-0.59,2.14,0.11,3,1.9,4.29c4.5,3.24,9.3,6.46,12.73,10.7c13.2,16.33,12.64,47.48-8.01,61.28c6.09,10.34,14.44,18.2,25.82,22.1
		c18.03,6.17,35.16,2.57,51.02-6.93c8.99-5.39,10.41-12.58,4.21-21.04c-2.84-3.88-5.17-8.15-7.54-12.36
		c-3.71-6.58-4.89-13.67-3.82-21.16c1.94-13.64,8.79-24.95,17.01-35.55c5.49-7.08,12.71-11.61,21.69-12.79
		c3.6-0.47,7.29-0.22,10.93-0.48c5.52-0.39,11.86,0.28,14.32-6.29c1.61-4.29,3.13-9.15,2.68-13.56
		c-1.22-11.92-5.34-23.01-12.22-33.01C547.02,258.78,526.76,250.14,509.55,254.11z M259.35,321.47
		c-4.54,15.77-11.25,30.24-13.04,46.24c-0.81,7.21-0.43,14.07,2.49,20.64c3.84,8.62,11.73,11.8,20.68,8.95
		c7.24-2.31,11.86-7.56,15.19-13.87c4.55-8.63,8.64-17.52,12.67-26.41c2.08-4.59,3.6-9.44,5.51-14.54
		C285.99,340.16,271.87,333.09,259.35,321.47z M276.31,231.05c-0.44-0.31-0.88-0.63-1.32-0.94c-16.42,7.32-26.66,20.22-28.7,37.72
		c-2.02,17.28,4.5,32.52,18.7,43.33c17.89,13.61,38.38,16.63,60.16,13.43c15.18-2.23,29-8.37,42.72-14.78
		c11.37-5.32,22.88-9.66,35.81-6.72c0.77,0.18,2.27-0.57,2.64-1.3c1.09-2.16,1.78-4.52,2.67-6.91c-8.01-4.28-16.34-5.59-24.5-2.9
		c-10.98,3.63-21.69,8.14-32.3,12.76c-18.06,7.86-36.55,12.45-56.31,8.51c-11.49-2.29-22.09-6.72-29.97-15.71
		c-14.29-16.31-12.57-40.74,3.3-56.26C272.12,238.44,273.97,234.49,276.31,231.05z M350.44,246.07
		c-6.45,18.96-12.86,37.78-19.26,56.6c0.27,0.22,0.54,0.45,0.8,0.67c10.79-5.68,21.59-11.35,32.5-17.1
		c-4.55-13.16-8.96-25.93-13.38-38.7C350.94,247.07,350.69,246.62,350.44,246.07z M416.86,397.76c-0.11-10.76-4.39-14.01-12.94-9.7
		c-3.92,1.98-7.92,4.45-7.71,9.44c0.21,5.08,4.64,6.97,8.64,8.6C412.22,409.09,416.95,405.72,416.86,397.76z M381.44,370.91
		c0.69,5.29,2.68,7.47,7.98,8.25c5.24,0.77,10.45-1.82,11.54-5.79c1.66-6.06-2.57-9.48-6.17-12.95c-2.82-2.72-6.65-2.46-8.85,0.79
		C383.96,364.12,382.9,367.65,381.44,370.91z M434.01,260.48c0.34,0.19,0.69,0.39,1.03,0.58c1.71-2.99,4.03-5.79,5.01-9.01
		c4.9-16.11,25.96-29.06,39.72-26.87c1.87,0.3,4.04-1.27,6.08-1.97C455.76,216.28,435.28,238.38,434.01,260.48z M428.45,359.14
		c0.1-5.22-8.05-11.1-14.06-10.13c-4.35,0.7-6.34,3.29-5.49,7.68c0.49,2.51,1.25,5.07,2.41,7.34c2.07,4.01,5.19,5.53,8.49,4.69
		C424.16,367.62,428.38,362.94,428.45,359.14z M388.31,342.79c-11.6,12.4-18.49,26-13.86,43.12c2.68,9.9,8.4,17.52,18.67,21.01
		c-0.84-2.3-1.93-4.49-3.62-6.02c-11.04-10.04-15.5-22.03-11.09-36.66c2.16-7.18,6.46-12.99,12.63-17.47
		C390.07,345.37,389.28,344.22,388.31,342.79z M442.9,382.1c-0.06-5.06-2.97-8.21-7.47-8.1c-6.79,0.16-12.04,3.76-11.97,8.2
		c0.08,4.36,6.82,10.92,11.23,10.94C439.19,393.15,442.97,388.07,442.9,382.1z M452.46,247.72c0.02,5,3.97,9.03,8.82,9.01
		c4.8-0.02,8.48-4.08,8.44-9.31c-0.04-5.17-4.1-9.46-8.94-9.42C455.73,238.03,452.43,241.88,452.46,247.72z M459.91,267.72
		c-4.44-0.03-7.83,3.18-7.86,7.43c-0.04,4.66,4.39,8.97,9.12,8.87c4.08-0.08,7.87-4.12,7.78-8.29
		C468.87,271.56,464.57,267.75,459.91,267.72z M493.61,269.89c0.03-5.14-2.92-8.17-7.85-8.06c-4.03,0.09-7.04,3.16-7.11,7.27
		c-0.08,4.55,3.57,8.68,7.71,8.73C490.53,277.87,493.59,274.53,493.61,269.89z M487.27,250.57c3.82,0.06,6.97-3.19,7.06-7.3
		c0.09-4.14-3.07-7.43-7.27-7.55c-4.22-0.13-7.73,2.75-7.88,6.44C479.01,246.29,483.06,250.5,487.27,250.57z M394.71,332.03
		c1.56-4.91,2.71-8.83,4.06-12.68c1.95-5.56,0.67-7.57-5.24-7.66c-1.89-0.03-3.78,0.32-6.06,0.53
		C389.89,318.87,392.12,324.97,394.71,332.03z"/>
	<path class="st2" d="M415.08,285.08c-6.9-1.76-13.19-3.99-19.66-4.8c-5.07-0.64-10.38,0.29-15.53,0.91
		c-2.49,0.3-3.59-0.06-4.48-2.66c-4.27-12.46-8.93-24.79-13.21-37.24c-1.9-5.53-3.04-11.33-4.92-16.87
		c-0.63-1.87-2.34-4.52-3.78-4.68c-1.62-0.17-4.3,1.68-5.12,3.34c-3.4,6.88-6.61,13.9-9.27,21.09
		c-7.48,20.18-14.71,40.44-21.88,60.73c-0.97,2.74-2.53,3.54-5.15,3.69c-16.83,0.97-34.28-13.17-36.43-29.82
		c-0.28-2.2,0.26-4.7,1.05-6.83c15.08-40.3,30.2-80.59,45.45-120.83c2.63-6.93,5.53-13.81,8.93-20.38
		c3.77-7.27,9.46-12.76,17.6-15.19c5.9-1.76,11.48-0.69,15.54,3.72c4.2,4.55,8.58,9.49,10.94,15.08
		c6.88,16.32,13.27,32.89,18.99,49.65c9.59,28.15,18.46,56.54,27.79,84.78c1.06,3.2,0.89,5.58-1.28,8.21
		C418.36,279.77,416.53,282.94,415.08,285.08z"/>
	<path class="st3" d="M509.55,254.11c17.21-3.97,37.47,4.67,48.27,20.39c6.87,10,11,21.09,12.22,33.01
		c0.45,4.4-1.07,9.27-2.68,13.56c-2.46,6.57-8.8,5.9-14.32,6.29c-3.64,0.26-7.33,0-10.93,0.48c-8.99,1.18-16.2,5.71-21.69,12.79
		c-8.22,10.6-15.07,21.91-17.01,35.55c-1.07,7.49,0.11,14.58,3.82,21.16c2.37,4.2,4.7,8.48,7.54,12.36
		c6.21,8.46,4.78,15.65-4.21,21.04c-15.86,9.5-32.99,13.1-51.02,6.93c-11.39-3.9-19.73-11.77-25.82-22.1
		c20.65-13.8,21.21-44.95,8.01-61.28c-3.43-4.24-8.23-7.46-12.73-10.7c-1.8-1.3-2.49-2.15-1.9-4.29
		c4.82-17.59,12.93-33.51,23.9-48.04c1.44-1.91,2.63-1.96,4.56-0.89c16.78,9.3,45.04-2.11,52.64-19.83
		C510.3,265.63,510.6,262.8,509.55,254.11z M531.83,307.22c11.91-0.02,21.85-10.08,21.84-22.13c-0.01-11.71-9.3-21.19-20.71-21.12
		c-12.16,0.07-22.11,10.16-22.04,22.37C510.98,298.07,520.16,307.24,531.83,307.22z M469.07,435.04c11.91,0,21.86-10.06,21.87-22.1
		c0.01-11.71-9.27-21.2-20.68-21.15c-12.17,0.06-22.12,10.13-22.07,22.34C448.22,425.85,457.4,435.04,469.07,435.04z M484.11,354.27
		c5.08-1.8,10.2-3.5,15.24-5.42c5.81-2.21,6.19-6.81,3.12-11.42c-2.99-4.5-6.86-8.51-10.82-12.23c-3.79-3.56-7.14-2.61-9.1,2.25
		c-2.14,5.31-4.06,10.71-5.85,16.15C474.33,350.77,476.2,353.24,484.11,354.27z"/>
	<path class="st4" d="M259.35,321.47c12.52,11.62,26.64,18.69,43.5,21.01c-1.91,5.1-3.43,9.94-5.51,14.54
		c-4.03,8.89-8.12,17.78-12.67,26.41c-3.33,6.31-7.94,11.56-15.19,13.87c-8.96,2.85-16.84-0.33-20.68-8.95
		c-2.93-6.56-3.3-13.43-2.49-20.64C248.1,351.71,254.81,337.25,259.35,321.47z"/>
	<path class="st5" d="M276.31,231.05c-2.34,3.44-4.19,7.39-7.11,10.24c-15.88,15.52-17.59,39.95-3.3,56.26
		c7.88,8.99,18.48,13.43,29.97,15.71c19.76,3.94,38.25-0.65,56.31-8.51c10.61-4.62,21.33-9.13,32.3-12.76
		c8.15-2.7,16.48-1.38,24.5,2.9c-0.89,2.39-1.58,4.75-2.67,6.91c-0.36,0.72-1.87,1.47-2.64,1.3c-12.94-2.94-24.44,1.4-35.81,6.72
		c-13.72,6.41-27.54,12.54-42.72,14.78c-21.79,3.21-42.28,0.18-60.16-13.43c-14.2-10.8-20.71-26.04-18.7-43.33
		c2.04-17.51,12.28-30.41,28.7-37.72C275.43,230.42,275.87,230.73,276.31,231.05z"/>
	<path class="st6" d="M350.44,246.07c0.25,0.55,0.5,0.99,0.66,1.47c4.42,12.77,8.83,25.54,13.38,38.7
		c-10.91,5.74-21.71,11.42-32.5,17.1c-0.27-0.22-0.54-0.45-0.8-0.67C337.58,283.85,343.98,265.04,350.44,246.07z"/>
	<path class="st5" d="M416.86,397.76c0.08,7.96-4.64,11.34-12.01,8.34c-4-1.62-8.44-3.52-8.64-8.6c-0.2-4.99,3.79-7.46,7.71-9.44
		C412.47,383.75,416.75,386.99,416.86,397.76z"/>
	<path class="st7" d="M381.44,370.91c1.46-3.26,2.52-6.79,4.5-9.7c2.21-3.26,6.04-3.52,8.85-0.79c3.6,3.48,7.83,6.89,6.17,12.95
		c-1.09,3.98-6.29,6.56-11.54,5.79C384.11,378.38,382.12,376.2,381.44,370.91z"/>
	<path class="st8" d="M434.01,260.48c1.27-22.1,21.75-44.2,51.85-37.26c-2.03,0.7-4.2,2.27-6.08,1.97
		c-13.77-2.18-34.82,10.76-39.72,26.87c-0.98,3.21-3.31,6.01-5.01,9.01C434.7,260.87,434.35,260.68,434.01,260.48z"/>
	<path class="st7" d="M428.45,359.14c-0.07,3.79-4.29,8.47-8.64,9.57c-3.3,0.84-6.42-0.68-8.49-4.69c-1.17-2.26-1.92-4.82-2.41-7.34
		c-0.86-4.39,1.13-6.98,5.49-7.68C420.4,348.04,428.55,353.92,428.45,359.14z"/>
	<path class="st9" d="M388.31,342.79c0.98,1.42,1.76,2.57,2.73,3.98c-6.17,4.48-10.46,10.29-12.63,17.47
		c-4.41,14.63,0.05,26.61,11.09,36.66c1.69,1.54,2.78,3.72,3.62,6.02c-10.27-3.49-15.99-11.11-18.67-21.01
		C369.82,368.8,376.71,355.19,388.31,342.79z"/>
	<path class="st7" d="M442.9,382.1c0.07,5.97-3.71,11.05-8.21,11.03c-4.42-0.02-11.16-6.58-11.23-10.94
		c-0.08-4.44,5.18-8.04,11.97-8.2C439.93,373.89,442.84,377.04,442.9,382.1z"/>
	<path class="st7" d="M452.46,247.72c-0.03-5.84,3.27-9.69,8.32-9.73c4.83-0.03,8.9,4.25,8.94,9.42c0.04,5.23-3.63,9.29-8.44,9.31
		C456.43,256.75,452.48,252.72,452.46,247.72z"/>
	<path class="st7" d="M459.91,267.72c4.66,0.03,8.96,3.83,9.04,8.01c0.09,4.17-3.7,8.2-7.78,8.29c-4.74,0.1-9.16-4.21-9.12-8.87
		C452.09,270.9,455.48,267.7,459.91,267.72z"/>
	<path class="st7" d="M493.61,269.89c-0.02,4.64-3.08,7.98-7.25,7.93c-4.14-0.05-7.79-4.18-7.71-8.73c0.07-4.11,3.08-7.18,7.11-7.27
		C490.69,261.72,493.64,264.75,493.61,269.89z"/>
	<path class="st10" d="M487.27,250.57c-4.21-0.07-8.26-4.28-8.09-8.41c0.15-3.7,3.66-6.57,7.88-6.44c4.2,0.13,7.36,3.41,7.27,7.55
		C494.24,247.38,491.09,250.63,487.27,250.57z"/>
	<path class="st11" d="M394.71,332.03c-2.58-7.06-4.81-13.17-7.24-19.81c2.28-0.21,4.17-0.56,6.06-0.53c5.92,0.09,7.2,2.1,5.24,7.66
		C397.41,323.2,396.27,327.12,394.71,332.03z"/>
	<path class="st12" d="M531.83,307.22c-11.66,0.02-20.85-9.15-20.91-20.87c-0.06-12.2,9.88-22.3,22.04-22.37
		c11.41-0.07,20.7,9.4,20.71,21.12C553.67,297.14,543.74,307.2,531.83,307.22z"/>
	<path class="st12" d="M469.07,435.04c-11.66,0-20.84-9.19-20.88-20.9c-0.04-12.21,9.91-22.28,22.07-22.34
		c11.41-0.05,20.68,9.43,20.68,21.15C490.93,424.98,480.98,435.04,469.07,435.04z"/>
	<path class="st13" d="M484.11,354.27c-7.91-1.03-9.78-3.5-7.41-10.68c1.79-5.44,3.71-10.84,5.85-16.15
		c1.96-4.86,5.31-5.81,9.1-2.25c3.96,3.72,7.83,7.73,10.82,12.23c3.07,4.61,2.68,9.21-3.12,11.42
		C494.31,350.76,489.19,352.47,484.11,354.27z M483.19,345.13c0.2,0.45,0.39,0.9,0.59,1.35c4.52-1.31,9.03-2.61,14.51-4.2
		c-3.76-4.33-6.67-7.67-9.94-11.43C486.44,336.13,484.82,340.63,483.19,345.13z"/>
	<path class="st14" d="M483.19,345.13c1.63-4.5,3.25-9,5.16-14.27c3.27,3.76,6.18,7.1,9.94,11.43c-5.48,1.58-10,2.89-14.51,4.2
		C483.58,346.03,483.39,345.58,483.19,345.13z"/>
</g>
</svg>
