<?xml version="1.0" encoding="utf-8"?>
<!-- Generator: Adobe Illustrator 25.3.1, SVG Export Plug-In . SVG Version: 6.00 Build 0)  -->
<svg version="1.1" id="Layer_1" xmlns="http://www.w3.org/2000/svg" xmlns:xlink="http://www.w3.org/1999/xlink" x="0px" y="0px"
	 viewBox="0 0 841.89 595.28" style="enable-background:new 0 0 841.89 595.28;" xml:space="preserve">
<style type="text/css">
	.st0{fill:#FFFFFF;}
</style>
<g>
	<path class="st0" d="M630.45,507.73c-139.82,0-279.63,0-419.45,0c0-139.82,0-279.63,0-419.45c139.82,0,279.63,0,419.45,0
		C630.45,228.09,630.45,367.91,630.45,507.73z M570.05,391.83c4.96,2.09,8.96,2.66,13.82,2.04c7.49-0.95,13.95-4.24,19.58-9.08
		c14.08-12.11,22.15-27.49,24.22-45.94c0.94-8.33-0.18-16.45-3.63-24.12c-4.58-10.19-11.83-17.53-22.84-20.63
		c-0.68-0.19-0.6-0.59-0.55-1.09c0.27-2.35,0.56-4.7,0.77-7.05c1.3-14.93,0.69-29.78-1.85-44.55c-2.73-15.9-7.56-31.14-14.52-45.69
		c-6.63-13.85-14.92-26.63-24.89-38.33c-7.43-8.72-15.61-16.63-24.55-23.77c-12.22-9.76-25.5-17.76-39.83-24.04
		c-18.46-8.09-37.72-13-57.8-14.68c-18.85-1.58-37.5-0.28-55.96,3.91c-14.55,3.29-28.47,8.3-41.76,15.03
		c-12.24,6.19-23.64,13.68-34.19,22.47c-11.09,9.24-20.92,19.66-29.47,31.26c-7.09,9.62-13.17,19.85-18.16,30.74
		c-7.59,16.54-12.59,33.8-14.82,51.85c-1.57,12.63-1.8,25.28-0.55,37.95c0.17,1.69,0.33,3.38,0.47,4.84
		c-2.94,0.92-5.81,1.54-8.45,2.69c-8.26,3.57-14.02,9.79-17.88,17.81c-4.47,9.3-5.4,19.12-3.76,29.2
		c2.07,12.77,7.36,24.12,15.64,34.05c5.22,6.25,11.26,11.51,18.84,14.76c5.21,2.23,10.63,3.24,16.26,2.3
		c2.37-0.39,4.66-1.26,7.08-1.94c7.88,19.54,19.43,36.93,34.45,51.98c14.99,15.03,32.32,26.61,51.92,34.8
		c19.62,8.2,40.08,12.44,61.32,12.61c28.91,0.24,56.11-6.54,81.32-20.74C532.49,452.3,555.68,426.01,570.05,391.83z"/>
	<path d="M570.05,391.83c-14.37,34.18-37.56,60.47-69.81,78.63c-25.21,14.2-52.41,20.99-81.32,20.74
		c-21.24-0.18-41.7-4.41-61.32-12.61c-19.6-8.19-36.93-19.77-51.92-34.8c-15.01-15.05-26.57-32.44-34.45-51.98
		c-2.42,0.68-4.71,1.54-7.08,1.94c-5.63,0.94-11.06-0.07-16.26-2.3c-7.58-3.25-13.62-8.51-18.84-14.76
		c-8.28-9.93-13.57-21.28-15.64-34.05c-1.64-10.08-0.71-19.9,3.76-29.2c3.86-8.02,9.62-14.24,17.88-17.81
		c2.65-1.14,5.52-1.77,8.45-2.69c-0.14-1.46-0.3-3.15-0.47-4.84c-1.25-12.67-1.01-25.32,0.55-37.95
		c2.24-18.06,7.23-35.32,14.82-51.85c5-10.88,11.07-21.12,18.16-30.74c8.55-11.6,18.38-22.02,29.47-31.26
		c10.56-8.79,21.96-16.28,34.19-22.47c13.29-6.72,27.21-11.73,41.76-15.03c18.46-4.18,37.11-5.49,55.96-3.91
		c20.08,1.69,39.34,6.6,57.8,14.68c14.33,6.28,27.62,14.28,39.83,24.04c8.93,7.14,17.12,15.05,24.55,23.77
		c9.97,11.7,18.26,24.48,24.89,38.33c6.96,14.55,11.79,29.79,14.52,45.69c2.54,14.77,3.15,29.62,1.85,44.55
		c-0.21,2.35-0.5,4.7-0.77,7.05c-0.06,0.5-0.13,0.9,0.55,1.09c11.02,3.11,18.26,10.44,22.84,20.63c3.45,7.67,4.56,15.79,3.63,24.12
		c-2.07,18.45-10.14,33.83-24.22,45.94c-5.63,4.84-12.09,8.13-19.58,9.08C579.01,394.49,575.01,393.92,570.05,391.83z
		 M317.91,262.69c0.09,0.02,0.02-0.02-0.03,0c-0.76,0.32-1.51,0.64-2.26,0.98c-9.75,4.42-18.68,10.19-27.31,16.48
		c-2.92,2.13-6.14,3.85-9.2,5.79c-0.33,0.21-0.64,0.61-0.76,0.99c-0.71,2.14-1.39,4.29-2.02,6.46c-2.69,9.37-4.51,18.9-5.25,28.62
		c-0.67,8.8-0.54,17.59,0.34,26.37c1,10.02,3.11,19.8,6.2,29.36c3.09,9.55,6.98,18.78,12.18,27.4c2.94,4.88,6.03,9.68,9.32,14.33
		c2.5,3.52,5.38,6.79,8.19,10.08c2.22,2.59,4.52,5.14,6.95,7.53c2.5,2.47,5.14,4.82,7.85,7.05c3.66,3.01,7.33,6.02,11.2,8.75
		c8.11,5.73,16.71,10.64,25.84,14.6c6.12,2.66,12.35,5.04,18.77,6.86c11.56,3.28,23.33,5.37,35.36,5.87
		c13.13,0.55,26.13-0.39,39.01-3.13c12.27-2.61,24.03-6.68,35.31-12.15c7.48-3.63,14.68-7.8,21.33-12.78
		c5.32-3.98,10.49-8.21,15.41-12.67c3.86-3.5,7.39-7.42,10.81-11.37c3.3-3.81,6.44-7.79,9.34-11.91c5.14-7.3,9.59-15.02,13.22-23.21
		c3.27-7.39,6.06-14.94,8.1-22.77c2.21-8.47,3.73-17.04,4.37-25.77c0.5-6.88,0.59-13.75,0.08-20.64
		c-0.49-6.56-1.23-13.09-2.68-19.51c-0.09-0.39-0.34-0.82-0.65-1.07c-3.67-3.03-7.46-5.93-11.03-9.07
		c-8.02-7.03-16.25-13.79-25.12-19.73c-0.38-0.25-0.76-0.49-1.35-0.87c0.18,0.74,0.3,1.2,0.4,1.66c0.42,2.08-0.42,3.61-2.33,4.36
		c-1.48,0.58-2.89,0.28-4.31-0.19c-3.15-1.04-6.3-2.08-9.46-3.08c-3.83-1.21-7.69-2.25-11.76-2.18c-5.87,0.1-11.33,1.81-16.63,4.17
		c-4.99,2.23-9.58,5.17-14.14,8.16c-1.25,0.82-2.6,1.57-4,2.07c-3.73,1.33-7.49-1.32-7.45-5.2c0.01-1.04,0.24-2.12,0.57-3.12
		c1.4-4.25,3.4-8.22,5.77-12.02c4.24-6.81,9.66-12.34,17.2-15.49c0.12-0.05,0.22-0.15,0.4-0.28c-0.37-0.12-0.65-0.23-0.94-0.31
		c-7.15-2.07-14.43-3.57-21.78-4.72c-11.9-1.87-23.88-2.73-35.92-2.95c-23.29-0.43-46.34,1.56-69.12,6.48
		c-0.37,0.08-0.73,0.19-1.19,0.31c0.17,0.15,0.21,0.21,0.27,0.23c0.22,0.08,0.45,0.16,0.68,0.23c5.22,1.68,9.73,4.52,13.59,8.41
		c5.16,5.2,8.68,11.44,11.39,18.16c0.58,1.45,1.06,2.99,1.24,4.54c0.43,3.66-2.78,6.62-6.4,5.96c-1.09-0.2-2.17-0.66-3.15-1.19
		c-1.56-0.86-3.03-1.87-4.52-2.85c-5.2-3.41-10.61-6.42-16.52-8.44c-5.49-1.87-11.13-2.97-16.87-1.65
		c-4.79,1.1-9.46,2.71-14.19,4.09c-1.37,0.4-2.73,1-4.14,1.13c-2.78,0.26-4.77-1.77-4.26-4.32c0.33-1.69,0.86-3.4,1.63-4.94
		C314.82,267.89,316.43,265.3,317.91,262.69z M264.78,294.49c0.57-2.02,1.08-3.97,1.7-5.89c0.26-0.82,0.01-1.24-0.7-1.5
		c-3.02-1.14-4.7-3.56-5.97-6.33c-2.24-4.88-1.65-9.9-0.61-14.92c0.13-0.63,0.32-1.28,0.65-1.82c2.26-3.68,4.39-7.45,6.89-10.96
		c9.1-12.79,20.22-23.59,32.9-32.8c7.75-5.64,15.97-10.49,24.54-14.77c17.04-8.51,34.99-14.25,53.7-17.7
		c17.74-3.27,35.62-4.34,53.63-3.3c16.21,0.93,32.13,3.57,47.74,8.05c14.94,4.29,29.25,10.15,42.74,17.91
		c13.23,7.61,25.28,16.73,35.85,27.8c9.94,10.41,17.97,22.08,23.95,35.17c2.01,4.4,3.97,8.81,4.55,13.68
		c0.17,1.4,0.31,2.8,0.49,4.48c0.66-0.98,1.22-1.71,1.67-2.5c3.33-5.85,4.92-12.21,4.89-18.89c-0.09-19.43-3.48-38.29-10.22-56.54
		c-7.14-19.34-17.5-36.76-31.05-52.28c-10.27-11.76-21.97-21.88-35.05-30.43c-11.91-7.79-24.6-13.96-38.03-18.6
		c-17.1-5.9-34.72-9.03-52.81-9.4c-22.31-0.45-43.93,3.23-64.85,11.07c-13.71,5.14-26.57,11.9-38.53,20.31
		c-10.8,7.59-20.62,16.3-29.4,26.19c-10.12,11.39-18.57,23.89-25.32,37.54c-7.58,15.32-12.67,31.43-15.27,48.31
		c-0.93,6.06-1.82,12.13-1.3,18.3c0.33,3.99,0.56,8,1,11.98c0.43,3.9,1.34,7.7,3.05,11.26c1.06,2.2,2.47,4.16,4.79,5.16
		C261.77,293.65,263.25,294,264.78,294.49z M569.57,288.12c2.18-0.04,3.7-0.53,5.07-1.44c0.22-0.14,0.51-0.37,0.53-0.58
		c0.24-1.9,0.93-3.75,0.11-5.73c-4.27-10.45-10.04-20-17.2-28.72c-6.22-7.58-13.18-14.38-20.87-20.47
		c-11.11-8.81-23.23-15.91-36.18-21.57c-20.78-9.08-42.54-14.3-65.14-16.11c-17.47-1.39-34.85-0.75-52.15,2.09
		c-19.94,3.28-39.05,9.18-57.09,18.39c-15.6,7.96-29.69,17.95-41.77,30.71c-6.77,7.16-12.62,14.98-17.46,23.55
		c-0.2,0.35-0.37,0.74-0.48,1.13c-0.87,3.25,0.41,5.98,2.23,8.51c0.98,1.37,2.45,1.78,4.03,1.19c1.44-0.54,2.91-1.09,4.19-1.91
		c2.8-1.79,5.56-3.65,8.21-5.65c12.58-9.49,26.29-16.84,41.18-21.96c24.54-8.45,49.85-12.81,75.71-14.18
		c21.21-1.13,42.33-0.28,63.31,3.24c16.1,2.71,31.62,7.32,46.45,14.16c16.49,7.61,31.27,17.86,45,29.65
		c2.74,2.35,5.87,3.88,9.22,5.03C567.63,287.83,568.87,287.97,569.57,288.12z M267.66,382.32c-0.13-0.45-0.25-0.87-0.38-1.29
		c-2.82-9.08-5-18.29-6.21-27.73c-0.21-1.65-0.68-3.26-1.01-4.89c-0.04-0.17,0.04-0.37,0.08-0.56c0.08-0.41,0.25-0.83,0.23-1.24
		c-0.17-3.56-0.48-7.11-0.54-10.67c-0.17-10.1,0.68-20.12,2.44-30.06c0.08-0.47,0.24-0.86-0.4-1.16c-3.15-1.48-6.36-2.71-9.88-2.94
		c-8.95-0.59-16.34,2.28-21.76,9.66c-4.43,6.03-6.29,12.94-6.92,20.25c-0.91,10.59,1.73,20.39,6.96,29.53
		c4.52,7.9,10.49,14.44,18.31,19.2c2.72,1.65,5.59,2.89,8.74,3.44C260.91,384.5,264.33,384.07,267.66,382.32z M573.39,382.52
		c2.7,1.34,5.41,1.82,8.27,1.56c3.76-0.34,7.17-1.7,10.37-3.65c7.32-4.46,13.05-10.49,17.48-17.78c6.17-10.15,9.07-21.07,7.6-32.98
		c-0.86-7.02-3-13.53-7.44-19.19c-6.96-8.89-18.08-10.23-26.63-7.55c-0.39,0.12-0.74,0.45-1.06,0.74c-0.82,0.71-1.64,1.43-2.41,2.19
		c-0.24,0.24-0.49,0.65-0.45,0.95c0.23,1.83,0.56,3.65,0.81,5.49c1.93,14.07,1.97,28.14,0,42.2c-0.55,3.96-1.48,7.86-2.09,11.81
		c-0.69,4.49-1.8,8.85-3.48,13.07C573.97,380.37,573.72,381.43,573.39,382.52z"/>
	<path class="st0" d="M317.91,262.69c-1.48,2.61-3.08,5.2-4.43,7.91c-0.77,1.54-1.3,3.25-1.63,4.94c-0.5,2.55,1.49,4.57,4.26,4.32
		c1.4-0.13,2.76-0.73,4.14-1.13c4.73-1.38,9.4-2.99,14.19-4.09c5.74-1.32,11.38-0.22,16.87,1.65c5.91,2.02,11.32,5.03,16.52,8.44
		c1.49,0.98,2.96,1.99,4.52,2.85c0.97,0.54,2.06,1,3.15,1.19c3.63,0.66,6.83-2.3,6.4-5.96c-0.18-1.54-0.66-3.09-1.24-4.54
		c-2.71-6.73-6.23-12.96-11.39-18.16c-3.86-3.89-8.36-6.73-13.59-8.41c-0.23-0.07-0.46-0.15-0.68-0.23
		c-0.06-0.02-0.1-0.08-0.27-0.23c0.46-0.12,0.82-0.23,1.19-0.31c22.78-4.92,45.83-6.91,69.12-6.48c12.04,0.22,24.02,1.08,35.92,2.95
		c7.35,1.15,14.63,2.65,21.78,4.72c0.29,0.08,0.57,0.19,0.94,0.31c-0.19,0.13-0.28,0.23-0.4,0.28c-7.55,3.15-12.96,8.68-17.2,15.49
		c-2.36,3.79-4.36,7.77-5.77,12.02c-0.33,1-0.56,2.07-0.57,3.12c-0.04,3.88,3.72,6.52,7.45,5.2c1.4-0.5,2.75-1.25,4-2.07
		c4.56-2.99,9.14-5.93,14.14-8.16c5.29-2.36,10.75-4.07,16.63-4.17c4.08-0.07,7.93,0.97,11.76,2.18c3.16,1,6.31,2.04,9.46,3.08
		c1.43,0.47,2.84,0.76,4.31,0.19c1.91-0.74,2.75-2.28,2.33-4.36c-0.09-0.46-0.22-0.92-0.4-1.66c0.59,0.38,0.97,0.62,1.35,0.87
		c8.87,5.95,17.1,12.7,25.12,19.73c3.58,3.14,7.36,6.03,11.03,9.07c0.31,0.25,0.56,0.68,0.65,1.07c1.45,6.43,2.2,12.95,2.68,19.51
		c0.51,6.89,0.42,13.76-0.08,20.64c-0.64,8.73-2.15,17.31-4.37,25.77c-2.05,7.83-4.83,15.38-8.1,22.77
		c-3.62,8.19-8.08,15.9-13.22,23.21c-2.9,4.12-6.04,8.1-9.34,11.91c-3.42,3.95-6.94,7.87-10.81,11.37
		c-4.92,4.46-10.08,8.69-15.41,12.67c-6.66,4.98-13.85,9.15-21.33,12.78c-11.27,5.47-23.03,9.55-35.31,12.15
		c-12.87,2.74-25.87,3.68-39.01,3.13c-12.03-0.5-23.8-2.59-35.36-5.87c-6.42-1.82-12.64-4.21-18.77-6.86
		c-9.13-3.96-17.72-8.87-25.84-14.6c-3.87-2.73-7.54-5.74-11.2-8.75c-2.71-2.23-5.34-4.59-7.85-7.05c-2.43-2.39-4.73-4.94-6.95-7.53
		c-2.82-3.29-5.69-6.55-8.19-10.08c-3.3-4.64-6.38-9.45-9.32-14.33c-5.19-8.61-9.09-17.84-12.18-27.4
		c-3.09-9.56-5.2-19.35-6.2-29.36c-0.88-8.79-1-17.57-0.34-26.37c0.74-9.73,2.56-19.26,5.25-28.62c0.62-2.17,1.31-4.32,2.02-6.46
		c0.12-0.38,0.43-0.78,0.76-0.99c3.06-1.94,6.28-3.66,9.2-5.79c8.63-6.29,17.56-12.06,27.31-16.48c0.75-0.34,1.5-0.66,2.26-0.98
		C317.92,262.67,318,262.71,317.91,262.69z M492.49,374.17c-1.24-2.73-2.25-5.32-3.54-7.76c-5.67-10.74-14.12-18.83-24.59-24.75
		c-19.84-11.22-41.05-13.86-63.22-9.32c-12.08,2.47-23.14,7.35-32.89,15.02c-9.42,7.42-16.33,16.62-19.95,28.15
		c-0.17,0.55-0.33,1.1-0.49,1.63c-0.18,0.01-0.29,0.04-0.38,0.02c-6.45-1.71-12.96-3.28-19.04-6.12
		c-7.99-3.73-15.61-8.13-23.19-12.62c-1.56-0.92-3.14-1.86-4.83-2.49c-4.06-1.52-7.68-0.01-9.69,3.82
		c-1.09,2.07-1.59,4.31-1.71,6.62c-0.73,13.59,3.96,25.19,13.45,34.74c5.42,5.46,12.17,9.18,19.04,12.59
		c0.39,0.19,0.78,0.37,1.2,0.57c-0.31,0.65-0.58,1.2-0.83,1.77c-3.61,8.19-1.26,16.32,6.21,21.22c4.17,2.73,8.8,3.9,13.78,3.6
		c0.91-0.05,1.3,0.12,1.49,1.1c0.93,4.66,3.66,7.85,8.07,9.63c3.3,1.34,6.73,1.82,10.26,1.72c2.02-0.06,4.04-0.21,6.06-0.3
		c1.51-0.07,2.83,0.39,3.9,1.49c0.41,0.42,0.86,0.79,1.29,1.18c3.61,3.23,7.86,4.77,12.69,4.75c3.9-0.01,7.58-1.05,11.2-2.37
		c0.89-0.32,1.78-0.65,2.7-0.98c0.52,1.31,0.96,2.53,1.47,3.72c2.59,5.97,6.06,11.31,11.43,15.15c3.86,2.76,8.14,4.19,12.96,3.6
		c3.83-0.47,7.12-2.13,10.04-4.6c4.44-3.76,7.46-8.54,9.77-13.81c0.3-0.68,0.64-0.98,1.41-1.04c4.1-0.27,7.84-1.54,11.03-4.23
		c0.27-0.22,0.75-0.33,1.11-0.28c5.61,0.7,10.57-0.12,13.64-5.61c0.09-0.17,0.43-0.27,0.67-0.28c1.84-0.08,3.68-0.03,5.51-0.23
		c2.83-0.31,5.38-1.3,7.34-3.5c0.19-0.21,0.67-0.3,0.98-0.24c2.68,0.5,5.38,0.57,8.09,0.28c5.75-0.61,9.65-4.69,9.85-10.37
		c0.02-0.65,0.25-0.88,0.84-1.04c2.58-0.69,5.17-1.35,7.72-2.15c2.22-0.69,4.17-1.91,5.8-3.59c1.94-1.99,3.06-4.38,2.63-7.17
		c-0.26-1.72-1.02-3.36-1.61-5.2c-0.14,0.18-0.11,0.1-0.05,0.07c1.51-0.88,3.04-1.73,4.53-2.63c8.07-4.87,15.48-10.51,21.17-18.14
		c6.15-8.23,9.06-17.43,8.14-27.74c-0.32-3.53-1.32-6.86-3.4-9.79c-2.07-2.91-4.93-4.28-8.46-3.69c-2.04,0.34-4.08,0.95-5.99,1.76
		c-5.6,2.4-11.16,4.91-16.7,7.46c-7.28,3.36-14.52,6.79-22.23,9.11C495.61,373.4,494.02,373.77,492.49,374.17z M323.21,323.6
		c0.06,1.22,0.12,3.45,0.3,5.67c0.57,7.08,1.99,13.96,4.92,20.48c1.79,3.98,4.1,7.59,7.48,10.43c5.38,4.52,12.5,4.53,17.87-0.01
		c0.76-0.64,1.47-1.34,2.15-2.06c3.5-3.78,5.63-8.33,7.2-13.15c3.16-9.73,3.91-19.71,2.98-29.85c-0.6-6.55-1.97-12.93-4.61-18.99
		c-1.93-4.42-4.4-8.48-8.33-11.41c-4.7-3.49-9.74-4.05-14.91-1.1c-1.52,0.87-2.9,2.07-4.15,3.32c-3.02,3-4.95,6.71-6.49,10.62
		C324.43,305.59,323.3,314,323.21,323.6z M517.83,321.76c-0.06-1.25-0.12-3.48-0.3-5.7c-0.56-6.87-1.92-13.56-4.68-19.91
		c-1.91-4.39-4.36-8.41-8.23-11.36c-3.27-2.49-6.94-3.68-11.09-2.75c-3.22,0.72-5.84,2.45-8.09,4.82
		c-3.82,4.03-6.09,8.92-7.73,14.12c-2.98,9.48-3.69,19.21-2.81,29.06c0.61,6.79,2.03,13.4,4.85,19.66
		c1.76,3.92,4.02,7.48,7.31,10.31c5.54,4.76,12.74,4.75,18.26-0.02c3.82-3.29,6.24-7.51,8.07-12.11
		C516.6,339.82,517.74,331.37,517.83,321.76z"/>
	<path class="st0" d="M264.78,294.49c-1.52-0.49-3-0.84-4.37-1.43c-2.32-1.01-3.73-2.97-4.79-5.16c-1.71-3.56-2.62-7.36-3.05-11.26
		c-0.44-3.98-0.67-7.98-1-11.98c-0.52-6.17,0.37-12.25,1.3-18.3c2.6-16.88,7.7-32.99,15.27-48.31c6.75-13.65,15.2-26.15,25.32-37.54
		c8.78-9.89,18.6-18.61,29.4-26.19c11.97-8.4,24.82-15.17,38.53-20.31c20.92-7.84,42.54-11.52,64.85-11.07
		c18.08,0.36,35.7,3.5,52.81,9.4c13.43,4.64,26.12,10.82,38.03,18.6c13.07,8.55,24.78,18.67,35.05,30.43
		c13.55,15.52,23.91,32.94,31.05,52.28c6.74,18.25,10.13,37.11,10.22,56.54c0.03,6.67-1.56,13.04-4.89,18.89
		c-0.45,0.79-1.02,1.52-1.67,2.5c-0.18-1.68-0.32-3.08-0.49-4.48c-0.58-4.87-2.54-9.28-4.55-13.68
		c-5.98-13.09-14.01-24.75-23.95-35.17c-10.57-11.08-22.63-20.19-35.85-27.8c-13.49-7.77-27.79-13.62-42.74-17.91
		c-15.6-4.48-31.52-7.11-47.74-8.05c-18.01-1.04-35.89,0.03-53.63,3.3c-18.7,3.45-36.66,9.19-53.7,17.7
		c-8.57,4.28-16.79,9.14-24.54,14.77c-12.68,9.22-23.81,20.01-32.9,32.8c-2.5,3.51-4.63,7.28-6.89,10.96
		c-0.33,0.54-0.52,1.2-0.65,1.82c-1.04,5.02-1.63,10.04,0.61,14.92c1.27,2.78,2.95,5.19,5.97,6.33c0.7,0.27,0.96,0.68,0.7,1.5
		C265.85,290.52,265.35,292.47,264.78,294.49z M419.89,182.74c7.73-0.02,13.97-0.93,20.03-2.95c9.55-3.18,17.77-8.33,23.76-16.59
		c5.14-7.09,7.38-15,6.15-23.73c-1.17-8.27-5.21-15.08-11.26-20.69c-8.74-8.1-19.31-12.15-31.01-13.4
		c-8.52-0.91-16.89-0.08-25.04,2.63c-9.17,3.04-17.14,7.93-23.06,15.71c-6.68,8.78-8.9,18.56-5.76,29.25
		c2.42,8.26,7.62,14.63,14.54,19.6C398.08,179.65,409.23,182.6,419.89,182.74z"/>
	<path class="st0" d="M569.57,288.12c-0.7-0.15-1.94-0.28-3.09-0.68c-3.35-1.15-6.48-2.68-9.22-5.03
		c-13.73-11.8-28.51-22.05-45-29.65c-14.83-6.84-30.35-11.45-46.45-14.16c-20.98-3.53-42.1-4.37-63.31-3.24
		c-25.86,1.37-51.17,5.73-75.71,14.18c-14.89,5.13-28.6,12.48-41.18,21.96c-2.65,2-5.41,3.87-8.21,5.65
		c-1.28,0.82-2.75,1.37-4.19,1.91c-1.58,0.59-3.05,0.18-4.03-1.19c-1.82-2.53-3.1-5.26-2.23-8.51c0.1-0.39,0.28-0.77,0.48-1.13
		c4.84-8.58,10.69-16.4,17.46-23.55c12.08-12.76,26.17-22.75,41.77-30.71c18.04-9.21,37.14-15.11,57.09-18.39
		c17.29-2.84,34.68-3.48,52.15-2.09c22.6,1.8,44.36,7.02,65.14,16.11c12.95,5.66,25.08,12.77,36.18,21.57
		c7.68,6.09,14.65,12.89,20.87,20.47c7.16,8.72,12.93,18.26,17.2,28.72c0.81,1.99,0.13,3.83-0.11,5.73
		c-0.03,0.22-0.32,0.44-0.53,0.58C573.27,287.59,571.75,288.07,569.57,288.12z"/>
	<path class="st0" d="M267.66,382.32c-3.32,1.75-6.75,2.18-10.33,1.54c-3.15-0.56-6.02-1.79-8.74-3.44
		c-7.83-4.76-13.8-11.3-18.31-19.2c-5.23-9.14-7.87-18.94-6.96-29.53c0.63-7.31,2.48-14.21,6.92-20.25
		c5.42-7.38,12.81-10.25,21.76-9.66c3.52,0.23,6.73,1.46,9.88,2.94c0.65,0.3,0.49,0.69,0.4,1.16c-1.76,9.94-2.62,19.97-2.44,30.06
		c0.06,3.56,0.37,7.11,0.54,10.67c0.02,0.41-0.16,0.83-0.23,1.24c-0.04,0.19-0.11,0.38-0.08,0.56c0.33,1.63,0.8,3.24,1.01,4.89
		c1.21,9.44,3.39,18.66,6.21,27.73C267.41,381.45,267.53,381.88,267.66,382.32z M242.68,335.91c0.45-2.96,1.39-5.71,3.04-8.2
		c0.41-0.62,0.93-1.2,1.48-1.7c0.97-0.88,1.67-0.94,2.79-0.26c0.76,0.46,1.44,1.04,2.2,1.51c1.8,1.12,3.92,0.36,4.34-1.71
		c0.21-1.01,0.12-2.24-0.28-3.18c-1.1-2.58-3.18-4.19-5.91-4.79c-3.68-0.81-6.8,0.49-9.34,3.07c-5.08,5.16-7.35,11.57-7.65,18.67
		c-0.45,10.63,6.16,20.84,15.74,24.51c1.19,0.46,2.51,0.75,3.78,0.78c2.03,0.04,3.83-0.66,4.63-2.74c0.8-2.06-0.26-3.64-1.75-4.86
		c-1.26-1.02-2.7-1.87-4.14-2.65c-3.6-1.95-6.16-4.85-7.91-8.5c-0.68-1.43-0.52-1.85,0.97-2.46c0.36-0.15,0.8-0.08,1.2-0.16
		c1.03-0.18,2.15-0.19,3.06-0.62c1.98-0.93,2.49-2.86,1.37-4.75c-1.13-1.9-2.89-2.66-5.04-2.5
		C244.43,335.44,243.61,335.71,242.68,335.91z"/>
	<path class="st0" d="M573.39,382.52c0.33-1.09,0.57-2.16,0.97-3.16c1.68-4.22,2.79-8.58,3.48-13.07c0.61-3.95,1.54-7.85,2.09-11.81
		c1.97-14.06,1.93-28.13,0-42.2c-0.25-1.83-0.59-3.65-0.81-5.49c-0.04-0.3,0.21-0.71,0.45-0.95c0.77-0.76,1.59-1.48,2.41-2.19
		c0.33-0.28,0.67-0.61,1.06-0.74c8.55-2.68,19.67-1.34,26.63,7.55c4.44,5.66,6.57,12.18,7.44,19.19c1.47,11.91-1.44,22.83-7.6,32.98
		c-4.43,7.29-10.16,13.32-17.48,17.78c-3.2,1.95-6.61,3.3-10.37,3.65C578.81,384.34,576.09,383.87,573.39,382.52z M598.2,336
		c-0.52-0.16-0.87-0.28-1.22-0.38c-1.77-0.49-3.46-0.38-5.01,0.7c-1.5,1.04-2.28,2.79-1.91,4.24c0.36,1.42,1.94,2.55,3.78,2.69
		c0.48,0.04,0.96,0,1.44-0.01c1.71-0.03,2.56,1.16,1.85,2.64c-0.42,0.86-0.89,1.7-1.41,2.5c-1.86,2.85-4.35,4.98-7.41,6.47
		c-1.71,0.83-3.28,1.86-4.41,3.44c-1.51,2.13-0.87,4.62,1.49,5.76c1.67,0.8,3.38,0.76,5.11,0.23c3.19-0.99,6.01-2.64,8.45-4.92
		c11.97-11.23,9.97-26.5,3-36.34c-1.63-2.3-3.68-4.14-6.4-5.12c-3.82-1.38-7.97-0.1-10.31,3.2c-0.82,1.15-1.28,2.43-1.1,3.86
		c0.33,2.55,2.67,3.59,4.78,2.13c0.62-0.43,1.2-0.91,1.84-1.3c1.2-0.73,1.96-0.7,2.96,0.29C596.45,328.78,597.47,332.25,598.2,336z"
		/>
	<path d="M492.49,374.17c1.53-0.4,3.12-0.77,4.69-1.24c7.7-2.32,14.95-5.75,22.23-9.11c5.53-2.56,11.09-5.07,16.7-7.46
		c1.9-0.81,3.95-1.42,5.99-1.76c3.53-0.59,6.38,0.78,8.46,3.69c2.08,2.93,3.08,6.26,3.4,9.79c0.93,10.3-1.99,19.5-8.14,27.74
		c-5.7,7.63-13.11,13.27-21.17,18.14c-1.49,0.9-3.02,1.75-4.53,2.63c-0.05,0.03-0.08,0.1,0.05-0.07c0.59,1.84,1.35,3.48,1.61,5.2
		c0.42,2.78-0.69,5.17-2.63,7.17c-1.63,1.68-3.58,2.9-5.8,3.59c-2.55,0.8-5.14,1.46-7.72,2.15c-0.59,0.16-0.82,0.39-0.84,1.04
		c-0.2,5.68-4.09,9.76-9.85,10.37c-2.71,0.29-5.4,0.22-8.09-0.28c-0.31-0.06-0.79,0.03-0.98,0.24c-1.97,2.2-4.51,3.2-7.34,3.5
		c-1.82,0.2-3.67,0.14-5.51,0.23c-0.23,0.01-0.57,0.11-0.67,0.28c-3.07,5.49-8.03,6.31-13.64,5.61c-0.36-0.04-0.84,0.06-1.11,0.28
		c-3.19,2.69-6.93,3.96-11.03,4.23c-0.77,0.05-1.11,0.36-1.41,1.04c-2.31,5.27-5.32,10.05-9.77,13.81
		c-2.92,2.47-6.21,4.13-10.04,4.6c-4.81,0.59-9.1-0.85-12.96-3.6c-5.38-3.85-8.85-9.18-11.43-15.15c-0.51-1.19-0.96-2.41-1.47-3.72
		c-0.92,0.34-1.81,0.66-2.7,0.98c-3.62,1.32-7.31,2.35-11.2,2.37c-4.83,0.02-9.08-1.52-12.69-4.75c-0.43-0.39-0.89-0.76-1.29-1.18
		c-1.07-1.11-2.39-1.56-3.9-1.49c-2.02,0.09-4.04,0.25-6.06,0.3c-3.53,0.1-6.96-0.38-10.26-1.72c-4.41-1.79-7.15-4.97-8.07-9.63
		c-0.2-0.98-0.58-1.15-1.49-1.1c-4.97,0.29-9.61-0.87-13.78-3.6c-7.48-4.9-9.82-13.03-6.21-21.22c0.25-0.56,0.52-1.11,0.83-1.77
		c-0.42-0.2-0.81-0.38-1.2-0.57c-6.87-3.42-13.62-7.13-19.04-12.59c-9.49-9.55-14.18-21.15-13.45-34.74
		c0.12-2.31,0.62-4.54,1.71-6.62c2.01-3.83,5.63-5.34,9.69-3.82c1.69,0.63,3.27,1.56,4.83,2.49c7.57,4.5,15.2,8.89,23.19,12.62
		c6.08,2.84,12.59,4.41,19.04,6.12c0.09,0.02,0.2-0.01,0.38-0.02c0.16-0.53,0.32-1.09,0.49-1.63c3.62-11.53,10.53-20.74,19.95-28.15
		c9.74-7.67,20.8-12.55,32.89-15.02c22.17-4.53,43.38-1.9,63.22,9.32c10.47,5.92,18.92,14.01,24.59,24.75
		C490.24,368.85,491.25,371.44,492.49,374.17z M421.08,338.16c-11.58,0.07-22.2,1.99-32.33,6.29c-10.34,4.39-19.37,10.6-25.98,19.82
		c-9.61,13.41-11.44,27.76-4.34,42.86c4.6,9.77,12.14,16.92,21.27,22.41c10.65,6.41,22.28,9.74,34.64,10.62
		c13.35,0.95,26.24-0.99,38.56-6.3c10.02-4.32,18.78-10.41,25.22-19.35c10.27-14.25,11.76-29.35,3.48-45.03
		c-4.72-8.94-11.96-15.53-20.57-20.63C448.54,341.47,434.91,338.28,421.08,338.16z M409.41,458.22c1.48,3.71,5.47,8.59,8.66,10.63
		c3.67,2.36,7.17,2.26,10.69-0.34c2.84-2.1,4.85-4.89,6.53-7.95c0.3-0.55,0.56-1.13,0.85-1.72c-0.26-0.12-0.4-0.21-0.56-0.27
		c-4.53-1.78-8.28-4.49-10.74-8.8c-0.23-0.41-0.55-0.79-0.9-1.11c-0.83-0.75-2.03-0.4-2.57,0.53c-0.7,1.2-1.42,2.45-2.37,3.44
		C416.35,455.36,413.26,457.41,409.41,458.22z"/>
	<path d="M323.21,323.6c0.09-9.6,1.22-18.02,4.4-26.06c1.55-3.91,3.47-7.63,6.49-10.62c1.25-1.24,2.63-2.45,4.15-3.32
		c5.17-2.95,10.22-2.39,14.91,1.1c3.93,2.92,6.4,6.99,8.33,11.41c2.64,6.06,4.01,12.43,4.61,18.99c0.93,10.14,0.18,20.13-2.98,29.85
		c-1.57,4.82-3.7,9.37-7.2,13.15c-0.67,0.73-1.39,1.42-2.15,2.06c-5.36,4.54-12.49,4.53-17.87,0.01c-3.38-2.84-5.69-6.45-7.48-10.43
		c-2.93-6.52-4.35-13.4-4.92-20.48C323.33,327.05,323.27,324.83,323.21,323.6z M358.55,320.95c-0.17-6.4-1.06-12.69-3.18-18.75
		c-1.31-3.77-2.93-7.42-5.92-10.2c-0.97-0.9-2.21-1.62-3.45-2.11c-1.59-0.62-2.43-0.19-3.32,1.24c-4.72,7.57-6.01,15.75-4.32,24.45
		c0.76,3.95,2.06,7.67,4.63,10.84c2.01,2.48,4.61,3.72,7.79,3.01c1.57-0.35,3.23-0.92,4.5-1.85c4.02-2.94,3.21-1.26,3.27-6.21
		C358.56,321.22,358.55,321.09,358.55,320.95z M331.31,322.37c-0.13,0.02-0.27,0.04-0.4,0.05c0.4,3.98,0.63,7.99,1.23,11.94
		c0.8,5.31,2.26,10.47,5.09,15.09c1.02,1.67,2.32,3.24,3.76,4.57c2.43,2.26,5.25,2.17,7.78,0c0.75-0.64,1.44-1.37,2.06-2.14
		c2.22-2.72,3.6-5.89,4.7-9.19c0.68-2.03,1.16-4.12,1.74-6.21c-0.24-0.04-0.31-0.07-0.37-0.05c-0.29,0.1-0.57,0.23-0.86,0.33
		c-6.22,2.26-12.05,1.81-17.28-2.56c-2.68-2.24-4.53-5.12-5.98-8.26C332.25,324.78,331.8,323.57,331.31,322.37z"/>
	<path d="M517.83,321.76c-0.08,9.61-1.23,18.05-4.43,26.13c-1.83,4.6-4.25,8.82-8.07,12.11c-5.53,4.77-12.73,4.78-18.26,0.02
		c-3.29-2.83-5.55-6.39-7.31-10.31c-2.82-6.26-4.24-12.87-4.85-19.66c-0.88-9.86-0.17-19.58,2.81-29.06
		c1.64-5.2,3.91-10.09,7.73-14.12c2.24-2.37,4.87-4.1,8.09-4.82c4.15-0.93,7.82,0.26,11.09,2.75c3.87,2.95,6.32,6.97,8.23,11.36
		c2.76,6.35,4.12,13.04,4.68,19.91C517.71,318.28,517.77,320.51,517.83,321.76z M482.46,320.73c0,0.62,0.07,1.24-0.01,1.85
		c-0.19,1.44,0.27,2.46,1.59,3.19c1.78,1,3.38,2.4,5.24,3.17c3.8,1.57,7.18,0.57,9.69-2.68c1-1.29,1.83-2.74,2.53-4.21
		c1.42-2.96,2.02-6.16,2.44-9.4c0.98-7.68-0.68-14.76-4.64-21.37c-0.6-1-1.45-1.4-2.51-1.53c-1.51-0.19-2.87,0.28-4.03,1.2
		c-0.85,0.68-1.66,1.45-2.36,2.28c-2.36,2.79-3.8,6.09-4.94,9.52C483.53,308.58,482.67,314.59,482.46,320.73z M483.67,336.1
		c0.61,2.22,1.1,4.42,1.82,6.55c1.36,4.01,3.06,7.86,6.2,10.87c2.96,2.84,6.01,2.84,8.97,0.03c1.79-1.7,3.11-3.73,4.19-5.93
		c2.83-5.77,4.13-11.94,4.73-18.29c0.14-1.47,0.19-2.95,0.29-4.42c-0.41,0.28-0.55,0.61-0.73,0.92c-0.95,1.66-1.78,3.42-2.9,4.95
		c-4.09,5.59-9.56,8.18-16.51,7.04C487.75,337.49,485.85,336.73,483.67,336.1z"/>
	<path d="M419.89,182.74c-10.65-0.14-21.81-3.1-31.66-10.18c-6.92-4.97-12.12-11.33-14.54-19.6c-3.13-10.69-0.92-20.47,5.76-29.25
		c5.92-7.78,13.89-12.67,23.06-15.71c8.15-2.7,16.52-3.54,25.04-2.63c11.7,1.25,22.27,5.3,31.01,13.4
		c6.05,5.61,10.09,12.42,11.26,20.69c1.23,8.73-1.01,16.64-6.15,23.73c-5.99,8.26-14.2,13.41-23.76,16.59
		C433.86,181.81,427.61,182.72,419.89,182.74z M422.73,110.26c-7.03,0.01-11.84,0.65-17.43,2.34c-8.23,2.5-15.45,6.65-20.99,13.38
		c-9.04,10.97-9.02,24.87,0,35.85c4.32,5.25,9.75,9,15.99,11.55c12.39,5.07,25.02,5.53,37.77,1.52c8.39-2.64,15.69-7.06,20.98-14.23
		c6.88-9.33,7.92-19.3,2.5-29.7c-2.77-5.32-6.96-9.39-11.94-12.64C441.01,112.74,431.46,110.36,422.73,110.26z"/>
	<path d="M242.68,335.91c0.93-0.2,1.75-0.46,2.59-0.53c2.15-0.16,3.92,0.61,5.04,2.5c1.12,1.88,0.61,3.82-1.37,4.75
		c-0.92,0.43-2.03,0.44-3.06,0.62c-0.4,0.07-0.84,0.01-1.2,0.16c-1.49,0.62-1.65,1.04-0.97,2.46c1.75,3.65,4.31,6.54,7.91,8.5
		c1.44,0.78,2.87,1.62,4.14,2.65c1.5,1.21,2.55,2.79,1.75,4.86c-0.8,2.07-2.61,2.78-4.63,2.74c-1.27-0.03-2.59-0.33-3.78-0.78
		c-9.58-3.67-16.19-13.88-15.74-24.51c0.3-7.1,2.57-13.51,7.65-18.67c2.54-2.57,5.66-3.88,9.34-3.07c2.73,0.6,4.81,2.21,5.91,4.79
		c0.4,0.94,0.48,2.17,0.28,3.18c-0.42,2.07-2.54,2.83-4.34,1.71c-0.75-0.47-1.44-1.06-2.2-1.51c-1.12-0.67-1.82-0.61-2.79,0.26
		c-0.55,0.5-1.07,1.07-1.48,1.7C244.07,330.2,243.13,332.95,242.68,335.91z"/>
	<path d="M598.2,336c-0.72-3.75-1.75-7.22-4.49-9.91c-1-0.98-1.76-1.02-2.96-0.29c-0.64,0.39-1.22,0.88-1.84,1.3
		c-2.11,1.46-4.44,0.42-4.78-2.13c-0.19-1.43,0.28-2.71,1.1-3.86c2.34-3.31,6.49-4.58,10.31-3.2c2.72,0.98,4.77,2.82,6.4,5.12
		c6.96,9.84,8.97,25.1-3,36.34c-2.44,2.29-5.25,3.93-8.45,4.92c-1.72,0.53-3.44,0.57-5.11-0.23c-2.36-1.14-3-3.63-1.49-5.76
		c1.12-1.59,2.7-2.62,4.41-3.44c3.06-1.49,5.56-3.62,7.41-6.47c0.52-0.8,0.99-1.64,1.41-2.5c0.72-1.47-0.14-2.67-1.85-2.64
		c-0.48,0.01-0.96,0.05-1.44,0.01c-1.84-0.14-3.41-1.28-3.78-2.69c-0.37-1.44,0.41-3.2,1.91-4.24c1.55-1.08,3.24-1.18,5.01-0.7
		C597.33,335.72,597.68,335.84,598.2,336z"/>
	<path class="st0" d="M421.08,338.16c13.83,0.12,27.46,3.31,39.95,10.7c8.61,5.1,15.86,11.7,20.57,20.63
		c8.28,15.68,6.79,30.77-3.48,45.03c-6.44,8.94-15.2,15.03-25.22,19.35c-12.32,5.31-25.21,7.25-38.56,6.3
		c-12.36-0.88-24-4.22-34.64-10.62c-9.13-5.49-16.67-12.64-21.27-22.41c-7.11-15.1-5.28-29.45,4.34-42.86
		c6.61-9.23,15.64-15.43,25.98-19.82C398.88,340.15,409.51,338.23,421.08,338.16z"/>
	<path class="st0" d="M409.41,458.22c3.85-0.81,6.94-2.86,9.57-5.59c0.96-0.99,1.68-2.23,2.37-3.44c0.54-0.94,1.74-1.29,2.57-0.53
		c0.35,0.32,0.67,0.7,0.9,1.11c2.46,4.31,6.21,7.02,10.74,8.8c0.16,0.06,0.3,0.15,0.56,0.27c-0.29,0.59-0.54,1.17-0.85,1.72
		c-1.68,3.06-3.69,5.85-6.53,7.95c-3.51,2.6-7.02,2.7-10.69,0.34C414.88,466.81,410.89,461.93,409.41,458.22z"/>
	<path class="st0" d="M358.55,320.95c0,0.14,0,0.27,0,0.41c-0.06,4.95,0.75,3.26-3.27,6.21c-1.28,0.93-2.93,1.5-4.5,1.85
		c-3.18,0.72-5.78-0.52-7.79-3.01c-2.57-3.17-3.86-6.89-4.63-10.84c-1.68-8.7-0.4-16.88,4.32-24.45c0.89-1.43,1.73-1.86,3.32-1.24
		c1.24,0.48,2.48,1.2,3.45,2.11c2.99,2.78,4.6,6.43,5.92,10.2C357.49,308.26,358.38,314.55,358.55,320.95z"/>
	<path class="st0" d="M331.31,322.37c0.49,1.19,0.94,2.41,1.48,3.58c1.45,3.14,3.29,6.02,5.98,8.26c5.23,4.37,11.06,4.82,17.28,2.56
		c0.29-0.11,0.57-0.23,0.86-0.33c0.05-0.02,0.12,0.02,0.37,0.05c-0.58,2.08-1.06,4.18-1.74,6.21c-1.1,3.29-2.49,6.46-4.7,9.19
		c-0.62,0.77-1.31,1.5-2.06,2.14c-2.53,2.17-5.35,2.26-7.78,0c-1.44-1.33-2.73-2.9-3.76-4.57c-2.84-4.62-4.29-9.78-5.09-15.09
		c-0.6-3.95-0.83-7.96-1.23-11.94C331.04,322.41,331.18,322.39,331.31,322.37z"/>
	<path class="st0" d="M482.46,320.73c0.21-6.13,1.07-12.15,3.01-17.98c1.14-3.43,2.58-6.73,4.94-9.52c0.7-0.83,1.5-1.6,2.36-2.28
		c1.16-0.92,2.51-1.39,4.03-1.2c1.06,0.13,1.91,0.53,2.51,1.53c3.95,6.61,5.62,13.69,4.64,21.37c-0.41,3.25-1.02,6.44-2.44,9.4
		c-0.71,1.47-1.54,2.92-2.53,4.21c-2.51,3.25-5.89,4.25-9.69,2.68c-1.86-0.77-3.46-2.17-5.24-3.17c-1.31-0.74-1.78-1.75-1.59-3.19
		C482.53,321.97,482.46,321.34,482.46,320.73z"/>
	<path class="st0" d="M483.67,336.1c2.18,0.63,4.07,1.38,6.04,1.71c6.95,1.15,12.42-1.44,16.51-7.04c1.12-1.54,1.95-3.29,2.9-4.95
		c0.18-0.31,0.32-0.64,0.73-0.92c-0.09,1.47-0.15,2.95-0.29,4.42c-0.6,6.35-1.9,12.52-4.73,18.29c-1.08,2.2-2.4,4.23-4.19,5.93
		c-2.96,2.81-6.01,2.81-8.97-0.03c-3.13-3.01-4.84-6.86-6.2-10.87C484.77,340.52,484.28,338.32,483.67,336.1z"/>
	<path class="st0" d="M422.73,110.26c8.74,0.1,18.28,2.48,26.88,8.08c4.98,3.24,9.16,7.32,11.94,12.64
		c5.42,10.4,4.38,20.37-2.5,29.7c-5.29,7.17-12.6,11.59-20.98,14.23c-12.75,4.01-25.38,3.55-37.77-1.52
		c-6.24-2.55-11.67-6.3-15.99-11.55c-9.03-10.98-9.04-24.88,0-35.85c5.54-6.72,12.76-10.88,20.99-13.38
		C410.88,110.9,415.7,110.27,422.73,110.26z M421.14,131.39c-0.27-0.34-0.48-0.6-0.67-0.87c-2.69-3.8-5.36-7.62-8.08-11.4
		c-0.74-1.02-1.61-1.95-2.5-2.84c-0.96-0.97-2.37-1-3.31-0.01c-0.74,0.77-1.43,1.67-1.87,2.63c-1.01,2.21-1.86,4.49-2.77,6.74
		c-4.8,11.9-9.61,23.8-14.4,35.71c-0.75,1.87-0.45,2.72,1.36,3.58c2.68,1.28,5.55,1.94,8.49,2.27c1.17,0.13,2.09-0.48,2.42-1.49
		c0.48-1.43,0.95-2.86,1.35-4.3c2.68-9.51,5.34-19.04,8.01-28.55c0.09-0.33,0.22-0.64,0.37-1.05c0.16,0.2,0.24,0.27,0.28,0.36
		c2.35,4.79,5.5,9.07,8.55,13.41c0.37,0.53,0.81,1.02,1.28,1.47c0.9,0.87,1.76,1.07,2.79,0.39c0.83-0.56,1.61-1.29,2.2-2.1
		c1.93-2.66,3.77-5.39,5.64-8.09c1.09-1.57,2.18-3.14,3.35-4.84c0.13,0.36,0.23,0.57,0.28,0.79c1.59,6.34,3.15,12.68,4.76,19.02
		c1.14,4.47,1.79,9.07,3.69,13.33c0.53,1.2,1.37,1.91,2.64,1.63c2.76-0.62,5.53-1.26,8.2-2.19c2.03-0.71,2.32-1.72,1.5-3.74
		c-5.76-14.32-11.53-28.64-17.36-42.93c-0.36-0.89-1.2-1.66-1.96-2.31c-0.83-0.72-2.09-0.59-2.92,0.21c-0.85,0.83-1.7,1.69-2.4,2.66
		c-2.77,3.83-5.47,7.71-8.2,11.57C421.65,130.74,421.42,131.02,421.14,131.39z"/>
	<path d="M421.14,131.39c0.28-0.37,0.51-0.65,0.72-0.95c2.73-3.86,5.43-7.74,8.2-11.57c0.69-0.96,1.54-1.83,2.4-2.66
		c0.82-0.8,2.09-0.93,2.92-0.21c0.76,0.66,1.59,1.42,1.96,2.31c5.83,14.29,11.6,28.61,17.36,42.93c0.81,2.03,0.53,3.03-1.5,3.74
		c-2.66,0.93-5.44,1.58-8.2,2.19c-1.26,0.28-2.1-0.43-2.64-1.63c-1.9-4.26-2.55-8.86-3.69-13.33c-1.61-6.33-3.17-12.68-4.76-19.02
		c-0.05-0.22-0.15-0.43-0.28-0.79c-1.17,1.69-2.26,3.26-3.35,4.84c-1.87,2.7-3.71,5.43-5.64,8.09c-0.59,0.81-1.37,1.55-2.2,2.1
		c-1.02,0.68-1.89,0.49-2.79-0.39c-0.46-0.45-0.91-0.94-1.28-1.47c-3.05-4.34-6.2-8.62-8.55-13.41c-0.04-0.09-0.12-0.16-0.28-0.36
		c-0.14,0.4-0.27,0.72-0.37,1.05c-2.67,9.52-5.33,19.04-8.01,28.55c-0.41,1.45-0.88,2.88-1.35,4.3c-0.34,1.01-1.25,1.62-2.42,1.49
		c-2.94-0.33-5.81-0.99-8.49-2.27c-1.81-0.86-2.11-1.72-1.36-3.58c4.79-11.91,9.59-23.81,14.4-35.71c0.91-2.25,1.75-4.54,2.77-6.74
		c0.44-0.97,1.14-1.86,1.87-2.63c0.94-0.99,2.35-0.95,3.31,0.01c0.89,0.89,1.76,1.82,2.5,2.84c2.73,3.78,5.39,7.6,8.08,11.4
		C420.66,130.79,420.87,131.04,421.14,131.39z"/>
</g>
</svg>
