<?xml version="1.0" encoding="utf-8"?>
<!-- Generator: Adobe Illustrator 25.3.1, SVG Export Plug-In . SVG Version: 6.00 Build 0)  -->
<svg version="1.1" id="Layer_1" xmlns="http://www.w3.org/2000/svg" xmlns:xlink="http://www.w3.org/1999/xlink" x="0px" y="0px"
	 viewBox="0 0 841.89 595.28" style="enable-background:new 0 0 841.89 595.28;" xml:space="preserve">
<style type="text/css">
	.st0{fill:#FFFFFF;}
</style>
<g>
	<path class="st0" d="M630.45,507.73c-139.82,0-279.63,0-419.45,0c0-139.82,0-279.63,0-419.45c139.82,0,279.63,0,419.45,0
		C630.45,228.09,630.45,367.91,630.45,507.73z M530.54,453.74c-0.45,2.97-0.83,5.75-1.29,8.52c-1.55,9.36-3.32,18.67-5.68,27.86
		c-0.43,1.65,0.74,2.86,2.41,2.47c0.55-0.13,1.14-0.35,1.58-0.7c0.94-0.73,1.89-1.49,2.68-2.38c5.32-5.91,10.36-12.06,14.94-18.57
		c0.27-0.38,0.54-0.75,0.81-1.13c0.15,0.4,0.11,0.72,0.08,1.04c-0.55,5.29-2,10.4-3.09,15.59c-0.51,2.41-0.99,4.82-1.45,7.24
		c-0.15,0.79,0.04,1.53,0.82,1.94c0.74,0.39,1.4,0.12,1.99-0.37c0.29-0.24,0.58-0.49,0.81-0.78c2.89-3.62,6.29-6.76,9.44-10.13
		c6.41-6.83,12.13-14.23,17.65-21.79c0.22-0.31,0.46-0.6,0.79-1.04c-0.56,3.21-1.07,6.2-1.61,9.2c-1.17,6.48-2.62,12.88-5.96,18.67
		c-0.14,0.23-0.25,0.5-0.3,0.76c-0.2,1.03,0.73,1.83,1.72,1.46c0.34-0.13,0.67-0.36,0.93-0.62c2.34-2.26,4.73-4.47,6.95-6.84
		c1.68-1.79,3.05-3.88,4.7-5.7c6.9-7.63,12.62-16.11,17.96-24.88c7.66-12.59,13.14-26.03,15.66-40.6
		c2.46-14.19,2.76-28.48,1.85-42.82c-0.18-2.84-0.88-5.65-0.16-8.57c2.35-9.56,3.05-19.33,3.29-29.12
		c0.16-6.67-0.15-13.36-0.33-20.04c-0.35-12.87-1.62-25.64-4.17-38.26c-6.75-33.35-21.46-62.68-44.48-87.8
		c-10.7-11.68-22.81-21.62-36.69-29.34c-19.9-11.07-41.25-16.47-64-16.27c-8.79,0.08-17.5,1.06-26.12,2.77
		c-5.67,1.12-11.16,2.8-16.39,5.27c-1.58,0.74-3.01,1.71-3.76,3.35c-0.32,0.7-0.71,0.75-1.35,0.65c-13.7-2.16-27.43-2.88-41.27-1.43
		c-13.54,1.42-26.81,4.04-39.74,8.33c-12.13,4.03-23.67,9.27-33.79,17.23c-9.36,7.36-18.05,15.5-26.33,24.03
		c-9.12,9.41-15.96,20.41-21.44,32.29c-5.23,11.34-9.74,22.9-12,35.26c-1.57,8.57-2.9,17.2-5.21,25.62
		c-1.53,5.58-2.92,11.19-4.53,16.74c-2.39,8.2-5.41,16.17-9.19,23.84c-0.65,1.32-1.37,2.62-1.86,4c-1.46,4.15,1.14,7.95,5.54,8.17
		c0.65,0.03,1.33,0.06,1.94-0.11c2.64-0.71,5.27-1.46,7.89-2.26c1.03-0.31,2.01-0.78,3.19-1.25c-0.14,0.59-0.24,1.01-0.35,1.43
		c-1.71,6.31-3.43,12.62-5.14,18.94c-2.94,10.81-4.98,21.76-5.26,33c-0.29,11.86,0.7,23.62,2.97,35.26
		c2.14,10.97,5.5,21.49,11.54,31.02c2.79,4.4,5.57,8.8,9.29,12.52c0.81,0.81,1.46,1.78,2.21,2.66c1.2,1.4,2.36,2.85,3.67,4.14
		c0.57,0.57,1.42,0.99,2.22,1.19c1.52,0.38,2.3-0.53,1.88-2.03c-0.53-1.91-1.07-3.82-1.63-5.73c-3.06-10.48-4.54-21.15-3.94-32.07
		c0.02-0.4,0.06-0.79,0.09-1.19c0.3,0.25,0.43,0.52,0.53,0.79c2.96,7.99,6.99,15.39,12.2,22.15c6.64,8.62,14.61,15.65,24.42,20.51
		c1.52,0.75,2.94,1.73,4.37,2.65c1.64,1.05,3.22,2.2,4.89,3.21c0.92,0.55,1.98,0.66,2.91-0.03c0.99-0.73,1.16-1.82,1-2.96
		c-0.07-0.5-0.24-1-0.45-1.47c-0.51-1.12-1.01-2.25-1.6-3.33c-2.97-5.42-5.45-11.05-7.37-16.93c-0.1-0.3-0.18-0.6-0.26-0.9
		c0.08-0.05,0.15-0.1,0.23-0.15c0.09,0.15,0.15,0.32,0.26,0.45c6.65,7.85,14.66,14.07,23.35,19.47c1.39,0.86,2.9,1.56,4.43,2.13
		c1.48,0.55,2.94,0.28,4.05-0.94c1.12-1.22,1.18-2.66,0.57-4.13c-0.31-0.76-0.71-1.48-1.13-2.19c-2.55-4.3-5.13-8.59-7.68-12.89
		c-0.47-0.79-0.87-1.63-1.21-2.49c-1.27-3.18-2.51-6.37-3.74-9.57c-0.5-1.29-0.96-2.6-1.53-4.14c30.48,25.7,65.41,39.11,105,39.5
		C464.37,491.55,499.58,478.79,530.54,453.74z"/>
	<path d="M530.54,453.74c-30.95,25.05-66.16,37.81-105.79,37.42c-39.58-0.39-74.51-13.8-105-39.5c0.57,1.54,1.03,2.85,1.53,4.14
		c1.23,3.19,2.47,6.39,3.74,9.57c0.34,0.85,0.75,1.69,1.21,2.49c2.54,4.31,5.12,8.59,7.68,12.89c0.42,0.71,0.82,1.43,1.13,2.19
		c0.61,1.47,0.54,2.91-0.57,4.13c-1.12,1.22-2.58,1.5-4.05,0.94c-1.53-0.57-3.04-1.27-4.43-2.13c-8.69-5.4-16.7-11.62-23.35-19.47
		c-0.11-0.13-0.17-0.3-0.26-0.45c-0.08,0.05-0.15,0.1-0.23,0.15c0.09,0.3,0.17,0.6,0.26,0.9c1.91,5.88,4.4,11.51,7.37,16.93
		c0.59,1.08,1.1,2.21,1.6,3.33c0.21,0.46,0.38,0.97,0.45,1.47c0.16,1.14-0.01,2.23-1,2.96c-0.93,0.69-2,0.59-2.91,0.03
		c-1.67-1.01-3.25-2.16-4.89-3.21c-1.44-0.92-2.85-1.89-4.37-2.65c-9.81-4.86-17.77-11.89-24.42-20.51
		c-5.21-6.76-9.24-14.15-12.2-22.15c-0.1-0.28-0.23-0.54-0.53-0.79c-0.03,0.4-0.06,0.79-0.09,1.19c-0.6,10.93,0.88,21.6,3.94,32.07
		c0.56,1.91,1.1,3.82,1.63,5.73c0.42,1.5-0.36,2.41-1.88,2.03c-0.8-0.2-1.64-0.62-2.22-1.19c-1.31-1.3-2.47-2.74-3.67-4.14
		c-0.75-0.88-1.4-1.85-2.21-2.66c-3.72-3.71-6.5-8.11-9.29-12.52c-6.04-9.53-9.4-20.05-11.54-31.02
		c-2.27-11.64-3.26-23.4-2.97-35.26c0.28-11.24,2.32-22.19,5.26-33c1.72-6.31,3.43-12.62,5.14-18.94c0.11-0.42,0.21-0.84,0.35-1.43
		c-1.18,0.47-2.16,0.94-3.19,1.25c-2.62,0.8-5.24,1.55-7.89,2.26c-0.61,0.16-1.3,0.14-1.94,0.11c-4.39-0.23-6.99-4.02-5.54-8.17
		c0.48-1.38,1.21-2.68,1.86-4c3.77-7.67,6.8-15.64,9.19-23.84c1.62-5.55,3-11.17,4.53-16.74c2.31-8.42,3.64-17.05,5.21-25.62
		c2.26-12.36,6.77-23.92,12-35.26c5.48-11.88,12.32-22.88,21.44-32.29c8.28-8.54,16.97-16.67,26.33-24.03
		c10.12-7.96,21.66-13.2,33.79-17.23c12.92-4.29,26.19-6.91,39.74-8.33c13.84-1.46,27.57-0.73,41.27,1.43
		c0.64,0.1,1.03,0.05,1.35-0.65c0.75-1.64,2.18-2.6,3.76-3.35c5.23-2.47,10.72-4.15,16.39-5.27c8.63-1.71,17.34-2.69,26.12-2.77
		c22.75-0.2,44.1,5.2,64,16.27c13.87,7.72,25.98,17.65,36.69,29.34c23.01,25.11,37.73,54.44,44.48,87.8
		c2.56,12.63,3.82,25.4,4.17,38.26c0.18,6.68,0.5,13.37,0.33,20.04c-0.24,9.79-0.94,19.56-3.29,29.12
		c-0.72,2.91-0.02,5.72,0.16,8.57c0.91,14.35,0.6,28.64-1.85,42.82c-2.52,14.56-8,28-15.66,40.6c-5.33,8.77-11.05,17.24-17.96,24.88
		c-1.65,1.83-3.02,3.91-4.7,5.7c-2.22,2.37-4.62,4.58-6.95,6.84c-0.27,0.26-0.59,0.49-0.93,0.62c-0.98,0.37-1.91-0.43-1.72-1.46
		c0.05-0.26,0.16-0.53,0.3-0.76c3.34-5.79,4.79-12.18,5.96-18.67c0.54-2.99,1.05-5.99,1.61-9.2c-0.33,0.43-0.56,0.73-0.79,1.04
		c-5.52,7.56-11.25,14.96-17.65,21.79c-3.16,3.37-6.56,6.51-9.44,10.13c-0.23,0.29-0.53,0.54-0.81,0.78
		c-0.59,0.49-1.25,0.76-1.99,0.37c-0.78-0.41-0.97-1.15-0.82-1.94c0.46-2.42,0.94-4.83,1.45-7.24c1.09-5.18,2.54-10.3,3.09-15.59
		c0.03-0.32,0.07-0.64-0.08-1.04c-0.27,0.38-0.55,0.75-0.81,1.13c-4.58,6.51-9.61,12.66-14.94,18.57c-0.8,0.88-1.74,1.64-2.68,2.38
		c-0.44,0.34-1.03,0.57-1.58,0.7c-1.67,0.39-2.84-0.82-2.41-2.47c2.37-9.19,4.13-18.5,5.68-27.86
		C529.71,459.49,530.09,456.71,530.54,453.74z M522.46,404.5c0.12,0,0.23-0.01,0.35-0.01c0.1-0.63,0.24-1.25,0.29-1.89
		c0.24-2.66,0.51-5.32,0.68-7.98c0.48-7.59,1.01-15.18,1.36-22.77c0.46-9.83,0.3-19.66-0.44-29.46c-0.56-7.34-1.28-14.67-2.32-21.96
		c-1.53-10.78-3.87-21.41-6.47-31.98c-1.79-7.31-3.56-14.63-5.65-21.85c-1.39-4.79-3.32-9.43-5-14.13c-0.14-0.4-0.2-0.82-0.33-1.38
		c0.37,0.14,0.57,0.19,0.75,0.28c2.71,1.5,4.71,3.64,6.15,6.39c3.26,6.19,5.29,12.84,7.13,19.53c2.37,8.64,4.52,17.34,6.63,26.05
		c1.96,8.12,3.44,16.35,4.48,24.64c1.41,11.23,2.2,22.51,2.04,33.83c-0.09,6.91-0.59,13.82-0.96,20.73
		c-0.17,3.09-0.72,6.03,0.49,9.22c2.4,6.3,3.47,13,4.69,19.63c2.09,11.28,3.22,22.62,2.45,34.13c-0.73,11-2.62,21.73-6.82,31.98
		c-0.14,0.34-0.15,0.72-0.23,1.08c0.44-0.16,0.67-0.4,0.85-0.67c2.33-3.45,4.78-6.83,6.96-10.38c3.46-5.65,6.93-11.3,10.02-17.15
		c2.39-4.52,4.4-9.27,6.22-14.05c2.52-6.65,4.66-13.41,5.14-20.62c0.36-5.49,0.22-10.94-0.28-16.41c-0.15-1.65-0.69-2.82-1.94-4.02
		c-2.76-2.68-5.32-5.59-7.81-8.53c-5.21-6.18-9.33-13.04-12.39-20.53c-2.39-5.84-3.91-11.89-4.23-18.21
		c-0.08-1.49,0.22-2.99,0.35-4.49c0.44,0.33,0.68,0.67,0.85,1.03c1.37,3.09,2.86,6.14,4.07,9.3c3.05,8.02,6.76,15.67,11.78,22.67
		c4.05,5.65,8.4,11.03,13.74,15.53c2.73,2.3,5.5,4.6,8.45,6.6c3.96,2.67,8.06,5.13,12.2,7.53c3.66,2.12,7.44,4.05,11.19,6.03
		c0.92,0.49,1.92,0.82,2.88,1.23c0.05-0.09,0.09-0.19,0.14-0.28c-0.22-0.2-0.44-0.4-0.67-0.6c-1.64-1.39-3.36-2.69-4.89-4.2
		c-2.14-2.11-4.21-4.31-6.18-6.57c-3.12-3.57-6.28-7.11-9.16-10.88c-4.72-6.19-8.53-12.97-11.53-20.14
		c-2.99-7.15-5.75-14.42-8.36-21.72c-3.3-9.25-6.27-18.61-8.49-28.18c-1.93-8.32-3.59-16.67-3.62-25.26
		c-0.01-1.99,0.2-3.97,0.31-5.96c0.37,0.33,0.55,0.66,0.66,1.01c1.18,3.78,2.48,7.54,3.5,11.36c1.35,5.05,2.45,10.17,3.71,15.25
		c2.35,9.51,5.57,18.75,9.28,27.81c3.85,9.39,7.77,18.76,11.9,28.03c4.24,9.53,9.52,18.52,15.56,27.02
		c2.69,3.79,5.82,7.27,8.81,10.84c1.3,1.55,2.95,2.7,4.9,3.83c0.56-4.01,1.15-7.83,1.6-11.66c1.33-11.1,1.28-22.23,0.51-33.35
		c-0.77-11.19-2.71-22.21-5.27-33.12c-1.61-6.86-3.27-13.71-4.81-20.58c-1.05-4.66-1.74-9.37-1.13-14.16
		c0.18-1.42,0.16-2.94,1.34-4.13c0.33,0.39,0.71,0.68,0.88,1.07c0.79,1.82,1.69,3.61,2.24,5.5c1.57,5.42,2.97,10.88,4.48,16.32
		c2.67,9.66,5.07,19.39,6.8,29.27c0.19,1.06,0.41,2.11,0.62,3.16c0.09-0.01,0.17-0.01,0.26-0.02c0.05-0.25,0.14-0.5,0.15-0.75
		c0.1-1.74,0.26-3.49,0.26-5.23c-0.01-5.03-0.04-10.07-0.16-15.1c-0.25-10.52-1.31-20.98-2.75-31.41
		c-1.68-12.14-3.88-24.18-7.11-36.02c-2.94-10.79-6.89-21.18-11.7-31.26c-4.15-8.69-9.12-16.88-14.62-24.77
		c-4.5-6.46-9.5-12.5-14.9-18.21c-2.91-3.08-5.95-6.06-9.11-8.9c-3.17-2.85-6.48-5.55-9.85-8.16c-4.41-3.4-9.03-6.48-13.91-9.18
		c-6.5-3.6-13.17-6.82-20.22-9.19c-8.29-2.79-16.75-4.87-25.46-5.81c-6.33-0.68-12.67-1.32-19.05-0.8
		c-5.63,0.46-11.27,0.86-16.87,1.53c-5.85,0.7-11.58,2.05-17.16,4c-0.32,0.11-0.61,0.32-1.16,0.63c4.85,1.14,9.45,2.07,13.55,4.48
		c-0.36,0.09-0.71,0.11-1.05,0.09c-5.61-0.29-11.22-0.6-16.83-0.86c-14.59-0.69-29.18-0.91-43.76,0.23
		c-8.07,0.63-16.05,1.84-23.96,3.53c-10.93,2.34-21.56,5.63-31.78,10.18c-8.95,3.99-16.89,9.49-23.99,16.2
		c-3.06,2.89-6.08,5.82-8.92,8.93c-3.36,3.68-6.63,7.44-9.69,11.37c-5.23,6.72-9.79,13.9-13.82,21.4
		c-4.1,7.63-7.42,15.62-10.22,23.82c-2.77,8.14-4.79,16.47-6.62,24.86c-2.7,12.39-5.04,24.88-8.85,37.01
		c-1.63,5.21-3.61,10.32-5.5,15.45c-0.78,2.13-1.73,4.21-2.64,6.39c0.27,0.02,0.48,0.09,0.65,0.04c0.91-0.29,1.82-0.6,2.72-0.92
		c2.47-0.89,4.88-2.02,7.41-2.64c3.2-0.78,6.01,1.45,6.19,4.73c0.08,1.59-0.03,3.24-0.41,4.78c-1.85,7.43-3.76,14.85-5.76,22.24
		c-3.02,11.19-4.92,22.5-4.89,34.14c0.03,11.42,1.14,22.7,3.6,33.84c2.08,9.38,5.49,18.33,9.21,27.16c0.12,0.28,0.31,0.53,0.47,0.79
		c0.1-0.03,0.2-0.06,0.3-0.1c-0.05-0.59-0.08-1.18-0.14-1.77c-1.01-10.72-0.03-21.34,1.68-31.93c0.08-0.52,0.08-1.1-0.06-1.6
		c-1.76-5.93-2.79-12.01-3.43-18.15c-1.66-15.87-0.46-31.55,3.29-47.03c0.97-4.01,2.39-7.93,3.7-11.85
		c0.52-1.55,1.48-2.89,2.88-4.08c0,0.35,0.02,0.51,0,0.67c-0.88,7.38-1.84,14.75-2.62,22.14c-0.57,5.38-1.05,10.78-1.3,16.18
		c-0.27,5.99-0.01,11.98,0.56,17.96c0.72,7.62,1.71,15.18,3.71,22.58c2.17,8.04,5.3,15.7,9.38,22.95c0.74,1.31,1.69,2.5,2.43,3.8
		c2.69,4.71,5.88,9.06,9.6,12.97c3.38,3.57,7.06,6.87,10.63,10.27c0.77,0.73,1.63,1.37,2.45,2.05c0.08-0.06,0.15-0.12,0.23-0.18
		c-0.09-0.31-0.16-0.63-0.28-0.93c-0.79-2.04-1.64-4.06-2.38-6.11c-2.64-7.37-4.36-14.97-5.49-22.7c-0.88-6.01-1.4-12.05-0.91-18.13
		c0.25-3.1,0.83-6.2,0.85-9.3c0.09-11.66,1.64-23.08,5.17-34.21c0.16-0.49,0.18-1.09,0.07-1.6c-1.79-7.78-2.63-15.66-2.55-23.64
		c0.07-6.63,0.97-13.17,2.04-19.7c1.7-10.35,4.09-20.53,7.3-30.52c2.52-7.83,5.58-15.44,9.66-22.6c1.28-2.25,2.76-4.39,4.15-6.58
		c0.08,0.04,0.16,0.09,0.24,0.13c-0.3,0.83-0.59,1.66-0.9,2.48c-2.94,7.6-5.51,15.32-7.53,23.21c-3.26,12.76-5.52,25.69-6.62,38.82
		c-0.79,9.42-0.74,18.82,0.53,28.19c0.84,6.22,2.43,12.28,4.28,18.26c2.01,6.48,4.68,12.7,7.86,18.69c0.76,1.44,1.64,2.81,2.46,4.21
		c0.23-0.29,0.3-0.55,0.27-0.79c-0.46-3.91-1.03-7.81-1.38-11.73c-0.93-10.44-0.25-20.82,1.53-31.12c1.52-8.84,3.97-17.46,6.7-26.01
		c3.2-9.99,6.18-20.06,10.32-29.72c2.72-6.35,5.11-12.87,8.3-18.97c5.2-9.94,10.87-19.63,16.48-29.35
		c2.81-4.88,6.16-9.42,9.84-13.69c2.25-2.61,4.49-5.22,6.78-7.79c0.65-0.72,1.47-1.29,2.33-2.05c0,0.33,0.04,0.47-0.01,0.59
		c-0.34,0.86-0.64,1.73-1.04,2.56c-2.47,5.09-5.5,9.9-7.05,15.44c-1.8,6.43-3.13,12.9-3.31,19.58c-0.19,6.93,0.12,13.83,1.14,20.7
		c1.22,8.21,3.09,16.26,5.71,24.14c0.28,0.83,0.61,1.63,1,2.64c0.13-0.39,0.22-0.54,0.23-0.71c0.03-0.72,0.04-1.44,0.06-2.16
		c0.16-5.82,0.07-11.65,0.54-17.45c0.82-10.14,2.4-20.19,4.22-30.2c1.61-8.86,3.35-17.71,6.42-26.19
		c2.44-6.74,5.47-13.26,8.26-19.87c0.16-0.38,0.49-0.68,0.84-1.15c0.47,0.84,1,1.48,1.21,2.21c0.53,1.83,1.08,3.69,1.32,5.57
		c0.91,7.13,1.51,14.31,2.59,21.41c1.79,11.84,5.42,23.16,10.42,34.03c3.02,6.56,6.5,12.88,10.55,18.85
		c3.19,4.71,6.63,9.26,10.06,13.79c3.69,4.87,7.72,9.47,12.1,13.74c3.21,3.13,6.44,6.23,9.71,9.29c2.04,1.92,4.1,3.82,6.25,5.6
		c3.78,3.13,7.57,6.25,11.47,9.22c5.88,4.49,11.82,8.9,17.8,13.25c6.07,4.42,12.46,8.3,19.44,11.15c0.39,0.16,0.77,0.31,1.11,0.45
		c-2.23-2.32-4.52-4.57-6.67-6.96c-2.6-2.89-5.2-5.79-7.58-8.87c-5.23-6.77-9.67-14.06-13.56-21.67c-1.87-3.65-3.74-7.32-5.32-11.1
		c-2.85-6.81-5.64-13.65-8.18-20.57c-2.96-8.1-5.17-16.44-7.05-24.86c-2.27-10.16-4.2-20.38-5.47-30.72
		c-0.7-5.67-1.36-11.37-0.26-17.09c0.19-0.99,0.33-1.99,0.5-2.99c0.11-0.01,0.22-0.01,0.33-0.02c0.68,2.13,1.57,4.23,2,6.41
		c0.8,4.02,1.22,8.13,2.01,12.15c1.58,8.02,3.15,16.05,4.99,24.01c2.78,12.01,6.31,23.8,10.71,35.32
		c2.95,7.74,6.23,15.33,9.97,22.72c0.11,0.22,0.28,0.42,0.41,0.63c0.09-0.02,0.17-0.04,0.26-0.06c-0.04-0.52-0.08-1.03-0.11-1.55
		c-0.56-11.6-1.08-23.2-1.7-34.8c-0.26-4.96-0.6-9.92-1.12-14.86c-0.63-5.99-1.55-11.95-2.23-17.94c-0.28-2.42-0.27-4.87-0.39-7.31
		c0.12-0.03,0.25-0.06,0.37-0.09c0.79,1.64,1.68,3.25,2.34,4.94c1.71,4.42,2.66,9.04,3.4,13.72c1.66,10.4,2.49,20.88,3.2,31.37
		c0.47,6.97,0.87,13.95,1.31,20.93c0.05,0.81,0.33,1.46,0.92,2.09c0.93,0.99,1.79,2.07,2.51,3.22c3.85,6.17,7.59,12.4,11.47,18.55
		c4.04,6.42,8.14,12.8,11.19,19.77c2.19,4.99,3.98,10.11,5.13,15.45C521.85,401.3,522.14,402.9,522.46,404.5z M520.29,428.78
		c-0.04-0.16-0.08-0.31-0.11-0.46c-0.94-4.91-1.73-9.85-2.85-14.72c-1.48-6.44-3.22-12.81-4.88-19.21c-0.1-0.38-0.4-0.86-0.72-0.99
		c-1.49-0.6-3.02-1.08-4.54-1.62c-3.02-1.08-6.12-2-9.05-3.29c-9.06-3.99-17.43-9.21-25.72-14.56c-1.46-0.94-3.03-1.72-4.54-2.59
		c-2.31-1.32-4.93-1.57-7.45-2.17c-12.58-3.02-25.07-6.51-37.98-7.98c-3.92-0.45-7.83-0.93-11.78-0.52
		c-2.2,0.23-4.18,0.89-5.73,2.63c-1.73,1.94-3.5,3.86-5.37,5.67c-7.89,7.66-15.71,15.41-23.76,22.89
		c-11.8,10.96-23.75,21.76-35.71,32.54c-5.67,5.11-11.37,10.22-17.87,14.31c-0.07,0.04-0.1,0.16-0.2,0.33
		c1.93,1.69,3.8,3.45,5.79,5.05c3.8,3.06,7.55,6.2,11.53,8.99c8.05,5.64,16.56,10.5,25.59,14.41c6.91,2.99,13.96,5.58,21.24,7.53
		c10.78,2.89,21.73,4.71,32.89,5.18c13.13,0.56,26.13-0.4,39.01-3.14c12.27-2.61,24.08-6.6,35.28-12.21
		c5.61-2.81,11.07-5.97,16.35-9.36c4.52-2.9,8.74-6.31,13-9.6c2.45-1.9,4.71-4.04,7.09-6.04c1.34-1.13,2.06-2.34,2.03-4.26
		c-0.12-6.94-0.75-13.82-1.84-20.66c-0.57-3.6-1.18-7.19-1.76-10.79C526.2,412.58,525.14,421.26,520.29,428.78z M591.24,414.08
		c-7.47-2.16-14.49-5.28-21.06-9.7c-0.07,0.53-0.14,0.86-0.16,1.19c-0.35,5.71-1.1,11.39-2.48,16.93
		c-1.31,5.25-3.02,10.42-4.75,15.56c-2.2,6.56-5.25,12.76-8.76,18.72c-1.11,1.89-1.7,3.78-1.78,6.03
		c-0.17,4.74-0.75,9.47-1.15,14.21c-0.03,0.35,0.05,0.7,0.09,1.23c0.33-0.29,0.53-0.42,0.68-0.6c2.87-3.55,5.87-7.01,8.56-10.7
		c4.49-6.14,8.98-12.29,13.1-18.67c3.94-6.1,7.51-12.45,11.08-18.78C587.32,424.69,589.46,419.62,591.24,414.08z M298.42,395.78
		c-1.07,8.75-1.92,17.34-2,25.98c-0.05,5.38-0.37,10.78,0.04,16.13c0.42,5.54,1.59,11.03,2.42,16.54c0.11,0.76,0.43,1.25,1.14,1.65
		c0.82,0.46,1.57,1.1,2.24,1.77c2.2,2.2,4.3,4.51,6.53,6.68c3.86,3.77,7.87,7.38,12.21,10.59c0.96,0.71,1.94,1.38,2.92,2.07
		c0.07-0.07,0.14-0.14,0.21-0.21c-0.09-0.28-0.15-0.57-0.28-0.83c-0.91-1.68-1.72-3.43-2.77-5.02c-4.29-6.56-7.24-13.72-9.44-21.18
		c-3.22-10.94-4.4-22.18-4.4-33.57c0-0.62-0.19-1.28-0.45-1.84c-1.6-3.39-3.33-6.73-4.87-10.15
		C300.66,401.62,299.62,398.77,298.42,395.78z M574.97,478.85c0.16,0.05,0.31,0.1,0.47,0.15c13.17-19.26,23.95-39.66,29.77-62.49
		c-0.26-0.07-0.39-0.13-0.52-0.14c-2.27-0.23-4.55-0.46-6.82-0.66c-0.15-0.01-0.4,0.16-0.46,0.31c-0.37,0.91-0.68,1.84-1.06,2.75
		c-1.12,2.64-2.2,5.3-3.42,7.9c-1.45,3.09-3.05,6.11-4.56,9.18c-0.66,1.35-1.13,2.8-1.89,4.09c-2.81,4.8-5.69,9.56-8.6,14.29
		c-0.52,0.85-0.73,1.64-0.64,2.6c0.15,1.7,0.4,3.42,0.32,5.12c-0.26,5.45-1.2,10.8-2.51,16.09
		C574.98,478.29,575,478.58,574.97,478.85z"/>
	<path class="st0" d="M522.46,404.5c-0.32-1.6-0.62-3.2-0.96-4.8c-1.15-5.33-2.95-10.46-5.13-15.45
		c-3.05-6.97-7.15-13.36-11.19-19.77c-3.88-6.15-7.62-12.38-11.47-18.55c-0.72-1.15-1.58-2.23-2.51-3.22
		c-0.59-0.63-0.87-1.28-0.92-2.09c-0.43-6.98-0.84-13.95-1.31-20.93c-0.7-10.49-1.54-20.97-3.2-31.37
		c-0.75-4.67-1.69-9.29-3.4-13.72c-0.65-1.69-1.55-3.3-2.34-4.94c-0.12,0.03-0.25,0.06-0.37,0.09c0.12,2.44,0.12,4.89,0.39,7.31
		c0.69,5.99,1.6,11.95,2.23,17.94c0.52,4.94,0.86,9.9,1.12,14.86c0.62,11.6,1.14,23.2,1.7,34.8c0.02,0.52,0.07,1.03,0.11,1.55
		c-0.09,0.02-0.17,0.04-0.26,0.06c-0.14-0.21-0.3-0.41-0.41-0.63c-3.74-7.39-7.01-14.98-9.97-22.72
		c-4.4-11.52-7.93-23.32-10.71-35.32c-1.84-7.96-3.42-15.99-4.99-24.01c-0.79-4.03-1.21-8.13-2.01-12.15
		c-0.43-2.18-1.32-4.28-2-6.41c-0.11,0.01-0.22,0.01-0.33,0.02c-0.17,1-0.31,2-0.5,2.99c-1.1,5.71-0.44,11.41,0.26,17.09
		c1.27,10.33,3.2,20.56,5.47,30.72c1.88,8.42,4.09,16.76,7.05,24.86c2.53,6.93,5.33,13.77,8.18,20.57c1.58,3.78,3.45,7.45,5.32,11.1
		c3.89,7.61,8.33,14.91,13.56,21.67c2.38,3.07,4.98,5.98,7.58,8.87c2.15,2.39,4.44,4.64,6.67,6.96c-0.34-0.13-0.72-0.29-1.11-0.45
		c-6.98-2.85-13.37-6.73-19.44-11.15c-5.98-4.35-11.92-8.77-17.8-13.25c-3.9-2.98-7.69-6.09-11.47-9.22
		c-2.15-1.78-4.21-3.69-6.25-5.6c-3.26-3.07-6.5-6.17-9.71-9.29c-4.38-4.27-8.41-8.87-12.1-13.74c-3.44-4.54-6.87-9.09-10.06-13.79
		c-4.05-5.97-7.54-12.3-10.55-18.85c-5-10.87-8.63-22.2-10.42-34.03c-1.08-7.1-1.68-14.28-2.59-21.41
		c-0.24-1.88-0.79-3.74-1.32-5.57c-0.21-0.73-0.74-1.37-1.21-2.21c-0.35,0.46-0.68,0.77-0.84,1.15c-2.79,6.61-5.82,13.13-8.26,19.87
		c-3.07,8.47-4.81,17.33-6.42,26.19c-1.82,10.01-3.4,20.06-4.22,30.2c-0.47,5.79-0.38,11.63-0.54,17.45
		c-0.02,0.72-0.03,1.44-0.06,2.16c-0.01,0.16-0.1,0.32-0.23,0.71c-0.38-1.01-0.72-1.81-1-2.64c-2.63-7.87-4.49-15.92-5.71-24.14
		c-1.02-6.87-1.33-13.77-1.14-20.7c0.18-6.69,1.51-13.16,3.31-19.58c1.55-5.54,4.58-10.35,7.05-15.44c0.4-0.83,0.71-1.7,1.04-2.56
		c0.04-0.11,0.01-0.25,0.01-0.59c-0.87,0.75-1.69,1.32-2.33,2.05c-2.29,2.57-4.54,5.18-6.78,7.79c-3.68,4.28-7.03,8.82-9.84,13.69
		c-5.61,9.72-11.28,19.41-16.48,29.35c-3.19,6.1-5.59,12.62-8.3,18.97c-4.13,9.66-7.12,19.73-10.32,29.72
		c-2.74,8.55-5.18,17.17-6.7,26.01c-1.77,10.3-2.46,20.68-1.53,31.12c0.35,3.92,0.92,7.82,1.38,11.73c0.03,0.24-0.04,0.5-0.27,0.79
		c-0.82-1.4-1.7-2.78-2.46-4.21c-3.18-5.99-5.85-12.21-7.86-18.69c-1.85-5.99-3.44-12.04-4.28-18.26
		c-1.26-9.38-1.31-18.77-0.53-28.19c1.09-13.14,3.36-26.06,6.62-38.82c2.02-7.9,4.58-15.62,7.53-23.21c0.32-0.82,0.6-1.66,0.9-2.48
		c-0.08-0.04-0.16-0.09-0.24-0.13c-1.39,2.19-2.87,4.33-4.15,6.58c-4.08,7.16-7.14,14.77-9.66,22.6c-3.21,9.98-5.6,20.17-7.3,30.52
		c-1.07,6.53-1.97,13.07-2.04,19.7c-0.08,7.98,0.76,15.86,2.55,23.64c0.12,0.5,0.09,1.1-0.07,1.6c-3.53,11.13-5.08,22.55-5.17,34.21
		c-0.02,3.1-0.6,6.2-0.85,9.3c-0.49,6.08,0.03,12.12,0.91,18.13c1.13,7.74,2.85,15.33,5.49,22.7c0.74,2.06,1.59,4.07,2.38,6.11
		c0.12,0.3,0.19,0.62,0.28,0.93c-0.08,0.06-0.15,0.12-0.23,0.18c-0.82-0.68-1.68-1.32-2.45-2.05c-3.57-3.4-7.24-6.7-10.63-10.27
		c-3.71-3.92-6.91-8.27-9.6-12.97c-0.75-1.3-1.7-2.49-2.43-3.8c-4.09-7.26-7.21-14.91-9.38-22.95c-2-7.4-2.99-14.96-3.71-22.58
		c-0.57-5.98-0.83-11.97-0.56-17.96c0.25-5.4,0.73-10.8,1.3-16.18c0.78-7.39,1.74-14.76,2.62-22.14c0.02-0.15,0-0.31,0-0.67
		c-1.4,1.19-2.36,2.53-2.88,4.08c-1.32,3.92-2.73,7.84-3.7,11.85c-3.75,15.48-4.95,31.17-3.29,47.03
		c0.64,6.14,1.67,12.21,3.43,18.15c0.15,0.5,0.15,1.08,0.06,1.6c-1.71,10.58-2.69,21.2-1.68,31.93c0.06,0.59,0.09,1.18,0.14,1.77
		c-0.1,0.03-0.2,0.06-0.3,0.1c-0.16-0.26-0.35-0.51-0.47-0.79c-3.72-8.83-7.13-17.77-9.21-27.16c-2.47-11.14-3.57-22.42-3.6-33.84
		c-0.03-11.64,1.87-22.96,4.89-34.14c1.99-7.39,3.91-14.81,5.76-22.24c0.38-1.54,0.5-3.19,0.41-4.78c-0.17-3.28-2.99-5.51-6.19-4.73
		c-2.53,0.62-4.94,1.75-7.41,2.64c-0.9,0.33-1.81,0.63-2.72,0.92c-0.17,0.05-0.37-0.02-0.65-0.04c0.91-2.19,1.85-4.26,2.64-6.39
		c1.88-5.13,3.86-10.24,5.5-15.45c3.8-12.13,6.15-24.61,8.85-37.01c1.83-8.39,3.84-16.72,6.62-24.86c2.8-8.2,6.12-16.19,10.22-23.82
		c4.03-7.5,8.6-14.68,13.82-21.4c3.05-3.93,6.33-7.7,9.69-11.37c2.83-3.1,5.86-6.04,8.92-8.93c7.1-6.71,15.04-12.21,23.99-16.2
		c10.22-4.55,20.85-7.84,31.78-10.18c7.91-1.69,15.89-2.91,23.96-3.53c14.58-1.13,29.17-0.92,43.76-0.23
		c5.61,0.27,11.22,0.58,16.83,0.86c0.34,0.02,0.68,0,1.05-0.09c-4.1-2.41-8.71-3.33-13.55-4.48c0.55-0.3,0.84-0.51,1.16-0.63
		c5.58-1.95,11.31-3.3,17.16-4c5.61-0.67,11.24-1.07,16.87-1.53c6.38-0.52,12.72,0.12,19.05,0.8c8.71,0.94,17.17,3.02,25.46,5.81
		c7.05,2.37,13.71,5.59,20.22,9.19c4.89,2.7,9.51,5.78,13.91,9.18c3.37,2.6,6.68,5.31,9.85,8.16c3.15,2.84,6.19,5.82,9.11,8.9
		c5.4,5.71,10.39,11.75,14.9,18.21c5.5,7.89,10.47,16.08,14.62,24.77c4.82,10.08,8.76,20.48,11.7,31.26
		c3.23,11.84,5.43,23.88,7.11,36.02c1.44,10.42,2.5,20.88,2.75,31.41c0.12,5.03,0.15,10.07,0.16,15.1c0,1.74-0.16,3.49-0.26,5.23
		c-0.01,0.25-0.1,0.5-0.15,0.75c-0.09,0.01-0.17,0.01-0.26,0.02c-0.21-1.05-0.43-2.11-0.62-3.16c-1.73-9.88-4.13-19.61-6.8-29.27
		c-1.5-5.44-2.9-10.9-4.48-16.32c-0.55-1.89-1.45-3.69-2.24-5.5c-0.17-0.39-0.55-0.68-0.88-1.07c-1.18,1.19-1.16,2.72-1.34,4.13
		c-0.61,4.79,0.09,9.51,1.13,14.16c1.54,6.87,3.21,13.72,4.81,20.58c2.56,10.91,4.5,21.93,5.27,33.12
		c0.77,11.12,0.82,22.26-0.51,33.35c-0.46,3.84-1.05,7.65-1.6,11.66c-1.96-1.13-3.61-2.28-4.9-3.83c-2.99-3.57-6.12-7.05-8.81-10.84
		c-6.04-8.5-11.32-17.49-15.56-27.02c-4.13-9.27-8.05-18.64-11.9-28.03c-3.71-9.06-6.93-18.29-9.28-27.81
		c-1.26-5.08-2.36-10.2-3.71-15.25c-1.02-3.83-2.32-7.58-3.5-11.36c-0.11-0.35-0.29-0.68-0.66-1.01c-0.11,1.99-0.31,3.97-0.31,5.96
		c0.03,8.58,1.69,16.94,3.62,25.26c2.22,9.58,5.19,18.94,8.49,28.18c2.61,7.3,5.37,14.57,8.36,21.72c3,7.17,6.8,13.95,11.53,20.14
		c2.87,3.76,6.04,7.31,9.16,10.88c1.98,2.27,4.04,4.46,6.18,6.57c1.53,1.5,3.25,2.8,4.89,4.2c0.23,0.19,0.45,0.4,0.67,0.6
		c-0.05,0.09-0.09,0.19-0.14,0.28c-0.96-0.41-1.96-0.74-2.88-1.23c-3.75-1.98-7.53-3.9-11.19-6.03c-4.13-2.4-8.24-4.86-12.2-7.53
		c-2.96-2-5.72-4.3-8.45-6.6c-5.33-4.5-9.68-9.88-13.74-15.53c-5.02-7-8.73-14.65-11.78-22.67c-1.2-3.16-2.69-6.21-4.07-9.3
		c-0.16-0.37-0.4-0.7-0.85-1.03c-0.13,1.5-0.43,3-0.35,4.49c0.32,6.31,1.84,12.37,4.23,18.21c3.06,7.49,7.18,14.35,12.39,20.53
		c2.49,2.95,5.05,5.85,7.81,8.53c1.24,1.2,1.79,2.37,1.94,4.02c0.5,5.47,0.64,10.91,0.28,16.41c-0.47,7.21-2.61,13.97-5.14,20.62
		c-1.82,4.78-3.83,9.53-6.22,14.05c-3.09,5.85-6.56,11.51-10.02,17.15c-2.17,3.55-4.62,6.93-6.96,10.38
		c-0.18,0.27-0.41,0.51-0.85,0.67c0.07-0.36,0.09-0.75,0.23-1.08c4.2-10.25,6.09-20.97,6.82-31.98c0.77-11.5-0.36-22.84-2.45-34.13
		c-1.23-6.63-2.3-13.33-4.69-19.63c-1.22-3.19-0.66-6.13-0.49-9.22c0.37-6.91,0.86-13.81,0.96-20.73
		c0.16-11.32-0.63-22.6-2.04-33.83c-1.04-8.29-2.51-16.52-4.48-24.64c-2.11-8.71-4.26-17.41-6.63-26.05
		c-1.83-6.69-3.87-13.34-7.13-19.53c-1.45-2.75-3.45-4.89-6.15-6.39c-0.17-0.1-0.38-0.14-0.75-0.28c0.13,0.55,0.19,0.98,0.33,1.38
		c1.68,4.71,3.61,9.34,5,14.13c2.09,7.22,3.85,14.55,5.65,21.85c2.59,10.57,4.94,21.21,6.47,31.98c1.03,7.28,1.76,14.62,2.32,21.96
		c0.74,9.8,0.9,19.64,0.44,29.46c-0.35,7.59-0.88,15.18-1.36,22.77c-0.17,2.67-0.44,5.32-0.68,7.98c-0.06,0.63-0.19,1.26-0.29,1.89
		C522.7,404.49,522.58,404.49,522.46,404.5z M275.94,322.81c0.07,0,0.13-0.01,0.2-0.01c0.05-0.26,0.11-0.52,0.15-0.78
		c0.73-3.97,1.34-7.97,2.21-11.92c1.8-8.14,4.04-16.16,7.38-23.82c2.06-4.74,4.23-9.41,6.76-13.95c2.49-4.46,4.84-8.99,7.75-13.19
		c9.33-13.47,21.39-24,35.29-32.48c19.91-12.14,41.64-19.12,64.66-22.22c19.04-2.57,38.07-2.23,57.03,1.01
		c14.05,2.4,27.65,6.33,40.67,12.12c16.15,7.19,30.73,16.69,42.96,29.61c7.31,7.73,13.31,16.34,17.81,25.97
		c4.91,10.5,8.95,21.33,11.9,32.54c1.27,4.85,2.25,9.78,3.28,14.69c0.31,1.47,0.37,2.99,0.54,4.49c0.22-0.23,0.29-0.45,0.33-0.68
		c1.55-7.62,2.39-15.3,1.91-23.08c-0.17-2.87-0.38-5.74-0.46-8.62c-0.27-9.38-1.29-18.66-3.79-27.73
		c-3.59-13.09-9.11-25.36-15.74-37.17c-3.18-5.67-6.94-10.92-11.01-15.97c-6.25-7.76-13.7-14.29-21.38-20.55
		c-7.02-5.73-14.57-10.69-22.85-14.48c-6.6-3.02-13.59-4.9-20.48-7.01c-6.64-2.03-13.51-3.18-20.39-4.22
		c-6.36-0.95-12.74-1.25-19.16-0.99c-1.06,0.04-2.12,0.15-3.17,0.07c-13.08-0.95-26.09-0.27-39.04,1.74
		c-3.75,0.58-7.45,1.56-11.22,2.04c-15.68,2.02-30.59,6.46-44.62,13.81c-16.96,8.88-31.09,21.06-42.36,36.52
		c-5.56,7.63-9.8,15.98-13.25,24.76c-4.18,10.62-7.98,21.37-10.08,32.62c-0.85,4.57-1.35,9.21-2.13,13.8
		c-1.54,9.12-1.94,18.25-0.61,27.43C275.31,319.05,275.64,320.93,275.94,322.81z"/>
	<path class="st0" d="M520.29,428.78c4.85-7.52,5.91-16.2,7.95-24.61c0.59,3.6,1.19,7.19,1.76,10.79
		c1.09,6.84,1.72,13.72,1.84,20.66c0.03,1.92-0.69,3.13-2.03,4.26c-2.38,1.99-4.64,4.14-7.09,6.04c-4.26,3.3-8.47,6.7-13,9.6
		c-5.28,3.39-10.74,6.55-16.35,9.36c-11.21,5.61-23.01,9.6-35.28,12.21c-12.87,2.74-25.87,3.7-39.01,3.14
		c-11.16-0.48-22.11-2.29-32.89-5.18c-7.28-1.95-14.33-4.55-21.24-7.53c-9.04-3.91-17.55-8.77-25.59-14.41
		c-3.99-2.8-7.73-5.94-11.53-8.99c-1.99-1.6-3.86-3.36-5.79-5.05c0.1-0.17,0.13-0.28,0.2-0.33c6.5-4.09,12.2-9.2,17.87-14.31
		c11.97-10.78,23.91-21.58,35.71-32.54c8.06-7.48,15.87-15.23,23.76-22.89c1.87-1.81,3.64-3.73,5.37-5.67
		c1.55-1.74,3.53-2.4,5.73-2.63c3.95-0.41,7.87,0.07,11.78,0.52c12.91,1.47,25.4,4.95,37.98,7.98c2.52,0.61,5.14,0.85,7.45,2.17
		c1.51,0.86,3.08,1.64,4.54,2.59c8.3,5.35,16.67,10.57,25.72,14.56c2.93,1.29,6.03,2.21,9.05,3.29c1.51,0.54,3.05,1.02,4.54,1.62
		c0.33,0.13,0.62,0.61,0.72,0.99c1.66,6.39,3.4,12.77,4.88,19.21c1.12,4.87,1.91,9.81,2.85,14.72
		C520.21,428.47,520.25,428.62,520.29,428.78z M431.63,438.58c2.06-0.3,4.16-0.46,6.18-0.93c7.11-1.67,12.79-5.76,17.84-10.86
		c0.31-0.31,0.55-0.7,0.76-1.09c0.89-1.67,0.6-3.63-0.69-4.94c-1.29-1.31-3.26-1.64-4.92-0.74c-0.68,0.37-1.29,0.9-1.86,1.44
		c-2.53,2.39-5.22,4.54-8.33,6.12c-4.14,2.11-8.48,2.85-13.05,1.78c-4.51-1.06-8.32-3.45-11.86-6.33c-0.58-0.48-1.15-0.99-1.78-1.39
		c-1.9-1.22-4.2-0.91-5.59,0.71c-1.38,1.61-1.34,3.93,0.13,5.64c0.27,0.31,0.55,0.62,0.88,0.86c2.17,1.61,4.28,3.33,6.56,4.76
		C420.67,436.62,425.89,438.36,431.63,438.58z"/>
	<path class="st0" d="M591.24,414.08c-1.78,5.54-3.92,10.62-6.63,15.41c-3.57,6.33-7.14,12.68-11.08,18.78
		c-4.13,6.38-8.61,12.54-13.1,18.67c-2.69,3.68-5.69,7.14-8.56,10.7c-0.14,0.18-0.34,0.31-0.68,0.6c-0.04-0.52-0.12-0.88-0.09-1.23
		c0.4-4.74,0.97-9.47,1.15-14.21c0.08-2.25,0.67-4.14,1.78-6.03c3.51-5.96,6.56-12.15,8.76-18.72c1.72-5.14,3.43-10.3,4.75-15.56
		c1.38-5.54,2.13-11.21,2.48-16.93c0.02-0.33,0.09-0.66,0.16-1.19C576.75,408.8,583.77,411.91,591.24,414.08z"/>
	<path class="st0" d="M298.42,395.78c1.2,2.99,2.24,5.85,3.49,8.61c1.54,3.42,3.27,6.76,4.87,10.15c0.27,0.56,0.45,1.23,0.45,1.84
		c0,11.38,1.18,22.62,4.4,33.57c2.2,7.46,5.15,14.62,9.44,21.18c1.04,1.6,1.86,3.34,2.77,5.02c0.14,0.25,0.19,0.55,0.28,0.83
		c-0.07,0.07-0.14,0.14-0.21,0.21c-0.97-0.69-1.96-1.36-2.92-2.07c-4.34-3.22-8.35-6.83-12.21-10.59c-2.23-2.17-4.33-4.48-6.53-6.68
		c-0.67-0.67-1.42-1.31-2.24-1.77c-0.71-0.4-1.03-0.89-1.14-1.65c-0.82-5.51-1.99-11-2.42-16.54c-0.41-5.35-0.09-10.75-0.04-16.13
		C296.49,413.12,297.34,404.53,298.42,395.78z"/>
	<path class="st0" d="M574.97,478.85c0.02-0.28,0.01-0.56,0.07-0.82c1.31-5.29,2.25-10.64,2.51-16.09c0.08-1.7-0.16-3.42-0.32-5.12
		c-0.09-0.96,0.12-1.76,0.64-2.6c2.91-4.73,5.79-9.5,8.6-14.29c0.76-1.29,1.23-2.74,1.89-4.09c1.51-3.07,3.11-6.09,4.56-9.18
		c1.22-2.59,2.3-5.26,3.42-7.9c0.38-0.9,0.69-1.84,1.06-2.75c0.06-0.15,0.31-0.32,0.46-0.31c2.28,0.2,4.55,0.43,6.82,0.66
		c0.13,0.01,0.26,0.07,0.52,0.14c-5.82,22.83-16.6,43.23-29.77,62.49C575.28,478.95,575.13,478.9,574.97,478.85z"/>
	<path d="M275.94,322.81c-0.3-1.88-0.63-3.76-0.9-5.65c-1.34-9.18-0.93-18.31,0.61-27.43c0.77-4.59,1.28-9.22,2.13-13.8
		c2.1-11.26,5.9-22,10.08-32.62c3.45-8.78,7.69-17.14,13.25-24.76c11.27-15.46,25.4-27.63,42.36-36.52
		c14.03-7.35,28.94-11.79,44.62-13.81c3.76-0.48,7.46-1.46,11.22-2.04c12.95-2.01,25.96-2.69,39.04-1.74
		c1.05,0.08,2.12-0.03,3.17-0.07c6.42-0.26,12.8,0.04,19.16,0.99c6.88,1.03,13.75,2.18,20.39,4.22c6.89,2.11,13.89,3.99,20.48,7.01
		c8.28,3.79,15.83,8.75,22.85,14.48c7.68,6.26,15.12,12.79,21.38,20.55c4.07,5.05,7.83,10.31,11.01,15.97
		c6.64,11.8,12.15,24.08,15.74,37.17c2.49,9.08,3.52,18.35,3.79,27.73c0.08,2.87,0.28,5.75,0.46,8.62
		c0.47,7.79-0.37,15.46-1.91,23.08c-0.05,0.23-0.12,0.46-0.33,0.68c-0.17-1.5-0.23-3.02-0.54-4.49c-1.04-4.91-2.01-9.84-3.28-14.69
		c-2.94-11.21-6.99-22.04-11.9-32.54c-4.5-9.63-10.5-18.25-17.81-25.97c-12.23-12.92-26.81-22.42-42.96-29.61
		c-13.02-5.8-26.62-9.72-40.67-12.12c-18.96-3.24-37.98-3.58-57.03-1.01c-23.02,3.1-44.75,10.08-64.66,22.22
		c-13.9,8.47-25.96,19.01-35.29,32.48c-2.91,4.2-5.26,8.73-7.75,13.19c-2.53,4.53-4.69,9.21-6.76,13.95
		c-3.34,7.66-5.58,15.68-7.38,23.82c-0.87,3.94-1.48,7.94-2.21,11.92c-0.05,0.26-0.1,0.52-0.15,0.78
		C276.07,322.8,276.01,322.81,275.94,322.81z"/>
	<path d="M431.63,438.58c-5.74-0.22-10.96-1.96-15.74-4.97c-2.28-1.43-4.39-3.16-6.56-4.76c-0.33-0.24-0.61-0.55-0.88-0.86
		c-1.47-1.71-1.51-4.04-0.13-5.64c1.39-1.61,3.69-1.93,5.59-0.71c0.63,0.4,1.19,0.92,1.78,1.39c3.54,2.89,7.35,5.28,11.86,6.33
		c4.57,1.07,8.91,0.33,13.05-1.78c3.11-1.59,5.81-3.73,8.33-6.12c0.57-0.54,1.18-1.07,1.86-1.44c1.66-0.91,3.63-0.57,4.92,0.74
		c1.29,1.31,1.58,3.26,0.69,4.94c-0.21,0.39-0.45,0.78-0.76,1.09c-5.05,5.09-10.73,9.18-17.84,10.86
		C435.79,438.13,433.69,438.28,431.63,438.58z"/>
</g>
</svg>
